<?xml version="1.0" encoding="UTF-8"?>
<svg version="1.1" xmlns="http://www.w3.org/2000/svg" width="640" height="640">
<path d="M0 0 C211.2 0 422.4 0 640 0 C640 211.2 640 422.4 640 640 C428.8 640 217.6 640 0 640 C0 428.8 0 217.6 0 0 Z " fill="#FEFEFE" transform="translate(0,0)"/>
<path d="M0 0 C2.70705488 3.3384591 3.51178906 5.70374369 4 10 C4.66 10 5.32 10 6 10 C6.495 11.093125 6.99 12.18625 7.5 13.3125 C10.34168906 19.00595503 14.18079538 23.93491892 18 29 C18.52980469 29.72574219 19.05960938 30.45148438 19.60546875 31.19921875 C23.14842138 36.0339718 26.99391385 40.54352546 31 45 C29.68054009 42.1286039 28.17813624 39.9507336 26.125 37.5625 C22.07684489 32.28015126 20.66624389 26.35255482 19 20 C18.6596875 18.91525391 18.6596875 18.91525391 18.3125 17.80859375 C16.55112707 11.94958241 16.81793394 6.06886865 17 0 C17.66 0 18.32 0 19 0 C19.29390625 0.82177734 19.29390625 0.82177734 19.59375 1.66015625 C26.40601837 19.71854006 36.88894319 34.96971781 50 49 C51.36043555 50.53613756 52.7151158 52.07740209 54.0625 53.625 C54.63097656 54.27726562 55.19945312 54.92953125 55.78515625 55.6015625 C56.18605469 56.06304687 56.58695312 56.52453125 57 57 C56.505 55.2675 56.505 55.2675 56 53.5 C54.91598066 49.22499413 54.84298623 45.39638547 55 41 C55.66 40.67 56.32 40.34 57 40 C57.99 43.63 58.98 47.26 60 51 C60.33 48.03 60.66 45.06 61 42 C61.66 42 62.32 42 63 42 C63.47308594 42.96679688 63.94617188 43.93359375 64.43359375 44.9296875 C71.67572368 59.70955061 71.67572368 59.70955061 84.5625 69.125 C85.696875 69.41375 86.83125 69.7025 88 70 C88.33 69.34 88.66 68.68 89 68 C93.20500738 72.5217482 97.10455311 77.01983371 100.5 82.1875 C104.22972372 87.67943263 108.62918403 91.87639468 115 94 C115 94.66 115 95.32 115 96 C115.804375 96.37125 115.804375 96.37125 116.625 96.75 C119.5823982 98.30652537 122.29724051 100.03435673 125 102 C125 102.66 125 103.32 125 104 C125.99 104 126.98 104 128 104 C128 101.36 128 98.72 128 96 C131.0340741 97.08359789 131.93888704 97.89448231 133.5859375 100.73828125 C136.36213773 105.04216708 140.50747412 107.08945021 144.875 109.5625 C150.29608739 112.68868987 155.42331022 115.69555704 160 120 C160 120.66 160 121.32 160 122 C160.66 122 161.32 122 162 122 C165.32821753 126.9923263 164.51014495 132.93473249 163.546875 138.72265625 C163.08008677 140.82653747 162.54676158 142.91547147 162 145 C161.34 145 160.68 145 160 145 C160.33 149.62 160.66 154.24 161 159 C162.32 159 163.64 159 165 159 C165 157.68 165 156.36 165 155 C165.515625 155.33 166.03125 155.66 166.5625 156 C169.78026512 157.32010877 172.5570528 157.13242105 176 157 C176 155.35 176 153.7 176 152 C174.68 152 173.36 152 172 152 C171.67 150.68 171.34 149.36 171 148 C172.32 147.34 173.64 146.68 175 146 C173.68 145.34 172.36 144.68 171 144 C172.32 143.67 173.64 143.34 175 143 C173.68 141.68 172.36 140.36 171 139 C171.67546875 139.02320313 172.3509375 139.04640625 173.046875 139.0703125 C173.93890625 139.08835938 174.8309375 139.10640625 175.75 139.125 C176.63171875 139.14820313 177.5134375 139.17140625 178.421875 139.1953125 C181.35780081 139.13640771 181.35780081 139.13640771 185 137 C180.38 136.67 175.76 136.34 171 136 C170.67 135.01 170.34 134.02 170 133 C172.31 133.33 174.62 133.66 177 134 C177 133.34 177 132.68 177 132 C175.68 131.34 174.36 130.68 173 130 C174.98 130 176.96 130 179 130 C178.505 129.401875 178.01 128.80375 177.5 128.1875 C176 126 176 126 176 123 C176.81210937 123.24556641 176.81210937 123.24556641 177.640625 123.49609375 C180.40222593 124.08590587 182.92818139 124.09609308 185.75 124.0625 C186.73484375 124.05347656 187.7196875 124.04445313 188.734375 124.03515625 C189.48203125 124.02355469 190.2296875 124.01195312 191 124 C191 123.34 191 122.68 191 122 C194.465 121.505 194.465 121.505 198 121 C197.40703125 120.90203125 196.8140625 120.8040625 196.203125 120.703125 C192.33921366 119.46996181 190.1452652 116.33006853 188 113 C187.625 110.0625 187.625 110.0625 188 108 C188.66 108 189.32 108 190 108 C190 108.99 190 109.98 190 111 C190.66 111 191.32 111 192 111 C191.67 110.01 191.34 109.02 191 108 C192.65 108.33 194.3 108.66 196 109 C196 107.35 196 105.7 196 104 C196.66 104.495 197.32 104.99 198 105.5 C201.96633241 107.48316621 204.60303262 107.22357461 209 107 C208.67 105.35 208.34 103.7 208 102 C211.96 102 215.92 102 220 102 C220 101.34 220 100.68 220 100 C229.18361843 95.78456859 236.6696996 92.96119884 247 94 C247 93.34 247 92.68 247 92 C249.98528087 93.02352487 252.00831019 94.0070317 254.4375 96.0625 C257.51350811 98.38826223 259.16722153 98.7107337 263 99 C264.08087891 99.18175781 264.08087891 99.18175781 265.18359375 99.3671875 C271.28992711 100.0120163 274.77183304 98.24223913 279.5 94.5 C281.00046875 93.24703125 281.00046875 93.24703125 282.53125 91.96875 C285 90 285 90 287 90 C286.67 91.98 286.34 93.96 286 96 C285.34 96 284.68 96 284 96 C283.34 97.98 282.68 99.96 282 102 C283.175625 101.01 283.175625 101.01 284.375 100 C287 98 287 98 289 98 C288.42805835 101.31726155 287.42999536 102.72635823 285 105 C291.23051835 105.33245849 295.47455225 105.23440844 301 102 C301.99 102 302.98 102 304 102 C303.0399928 105.39472427 302.34538367 106.76092812 299.3984375 108.80078125 C298.40070313 109.29964844 297.40296875 109.79851562 296.375 110.3125 C295.37210937 110.82425781 294.36921875 111.33601563 293.3359375 111.86328125 C292.17964844 112.42595703 292.17964844 112.42595703 291 113 C292.25964575 115.58738046 293.62063331 118.04843947 295.125 120.5 C297 124 297 124 297 128 C295.02 127.67 293.04 127.34 291 127 C290.24683986 135.53581491 290.28645411 141.88853231 294.5 149.4375 C299.27560478 158.04717771 299.27560478 158.04717771 298 164 C296.53300475 166.33969681 294.95746588 167.99592779 293 170 C292.34 170.99 291.68 171.98 291 173 C287.27143571 174.57746951 282.96800038 174.06613334 279 174 C276.03459119 167.55345912 276.03459119 167.55345912 275.8125 164 C274.49643943 159.14069943 271.07846181 156.74780543 267 154 C262.26410346 151.58603779 258.34930433 150 253 150 C252.37810313 159.12115414 253.89168406 167.19118068 256.39257812 175.8828125 C257.01784054 178.06218373 257.60997929 180.24919543 258.203125 182.4375 C258.61209397 183.87571021 259.02348063 185.31323552 259.4375 186.75 C259.70856567 187.75111816 259.70856567 187.75111816 259.98510742 188.77246094 C261.36365096 193.33826288 263.1488184 195.29457492 267 198 C272.44189503 204.06061178 273.19710557 211.13882464 274 219 C283.52867185 215.30050417 283.52867185 215.30050417 291.62890625 209.32421875 C292.08136719 208.88722656 292.53382813 208.45023438 293 208 C295.1875 208.3125 295.1875 208.3125 297 209 C297 209.66 297 210.32 297 211 C298.61068359 210.86464844 298.61068359 210.86464844 300.25390625 210.7265625 C304.61003034 210.54401334 308.85131077 210.51956842 313 212 C316.25525765 215.40422707 317.64282292 219.24470164 319.14892578 223.61767578 C320.12588929 226.3523889 321.23730072 229.01015878 322.37109375 231.68359375 C324.00162682 235.54141281 325.61499542 239.40401298 327.1796875 243.2890625 C327.50694824 244.10068848 327.83420898 244.91231445 328.17138672 245.74853516 C329.88691004 250.40986577 330.15752418 254.61882468 330.125 259.5625 C330.12306641 260.26761719 330.12113281 260.97273438 330.11914062 261.69921875 C330.0716658 267.5016978 329.68383841 273.23621911 329 279 C327.5903653 279.70180531 326.17192359 280.38593958 324.75 281.0625 C323.96109375 281.44535156 323.1721875 281.82820313 322.359375 282.22265625 C319.67243316 283.10792351 318.53318904 283.26659452 316 282 C313.06846861 276.38852386 312.65527839 270.20498896 313 264 C314.65 263.67 316.3 263.34 318 263 C318.25030977 260.58380177 318.25030977 260.58380177 318 258 C317.01 257.34 316.02 256.68 315 256 C314.59936523 254.1081543 314.59936523 254.1081543 314.55859375 251.82421875 C314.51895508 250.58188477 314.51895508 250.58188477 314.47851562 249.31445312 C314.45821289 248.01411133 314.45821289 248.01411133 314.4375 246.6875 C314.39455872 239.10994169 314.39455872 239.10994169 312 232 C311.34 232 310.68 232 310 232 C309.484375 231.401875 308.96875 230.80375 308.4375 230.1875 C305.09699619 227.18961196 301.4000397 225.82888072 297 225 C294.02935009 225.49872225 291.64886939 226.58096282 289 228 C289 228.99 289 229.98 289 231 C289.99 231.33 290.98 231.66 292 232 C291.8659375 232.6496875 291.731875 233.299375 291.59375 233.96875 C290.84259486 237.80359467 290.17149652 241.65052986 289.5 245.5 C289.24014202 246.9896809 288.97973908 248.47926685 288.71875 249.96875 C288.59588623 250.67346436 288.47302246 251.37817871 288.34643555 252.10424805 C288.07433899 253.59320492 287.75819954 255.07412043 287.42578125 256.55078125 C286.72642401 260.5736894 286.71651963 264.65806025 286.65820312 268.73632812 C286.57421875 270.69921875 286.57421875 270.69921875 286 274 C284.046875 275.30859375 284.046875 275.30859375 282 276 C280.9935725 277.66279327 279.99414593 279.32983484 279 281 C274.59000382 285.40999618 268.73663449 287.74599224 263 290 C262.34 290 261.68 290 261 290 C259.01846608 283.23378663 258.78474653 275.61233901 262 269.25 C262.66 268.1775 263.32 267.105 264 266 C267.34373475 266.55728913 270.03312999 267.35173889 273 269 C272.9071875 267.9171875 272.9071875 267.9171875 272.8125 266.8125 C273 264 273 264 274.46875 261.84375 C276.49220088 258.08591265 276.55600719 254.89151302 276.6875 250.6875 C276.72166016 249.94693359 276.75582031 249.20636719 276.79101562 248.44335938 C276.87293554 246.62941836 276.93815822 244.81473647 277 243 C273.46973316 244.24443544 270.55151797 245.89654425 267.44506836 247.97045898 C255.90876228 255.54862143 242.60199295 259.44289172 229.34765625 262.97265625 C228.57292969 263.31167969 227.79820312 263.65070313 227 264 C226.26150457 265.92265363 226.26150457 265.92265363 226 268 C222.39418473 272.15215091 218.36201925 274.69219043 213 276 C213 276.66 213 277.32 213 278 C200.86387434 282.43960219 188.77806821 286.80782577 176 289 C174.97412311 292.07763066 174.83209821 294.46089417 174.6875 297.6875 C174.01314259 306.27777595 171.25762844 311.15954679 165 317 C163.59424636 318.55358091 162.19960114 320.1172429 160.8125 321.6875 C156.08161007 326.96609363 151.30371367 332.28781584 146 337 C145.34 337 144.68 337 144 337 C143.94527912 338.39538254 143.90688462 339.79140897 143.875 341.1875 C143.85179687 341.96480469 143.82859375 342.74210937 143.8046875 343.54296875 C144.15479639 347.94733857 145.25966037 350.30252823 148.49609375 353.3515625 C149.95208984 354.47691406 149.95208984 354.47691406 151.4375 355.625 C156.88184349 359.8731828 156.88184349 359.8731828 158.4921875 361.6015625 C160.63528757 363.58920454 163.03491858 364.54088478 165.6875 365.75 C173.60212015 369.66424382 179.2292885 373.16430533 182.5 381.625 C183.69342319 385.2155577 184.16383021 388.21825264 184 392 C181.81462633 392.50921328 179.62657569 393.00694437 177.4375 393.5 C175.61025391 393.91765625 175.61025391 393.91765625 173.74609375 394.34375 C170.07777293 394.98637554 166.71497397 395.11474823 163 395 C163 394.01 163 393.02 163 392 C162.34 392 161.68 392 161 392 C160.67 387.38 160.34 382.76 160 378 C158.35 377.67 156.7 377.34 155 377 C150.34297215 375.06903723 149.42095832 372.71226489 147.42578125 368.25390625 C144.97897855 364.38594692 141.36068393 361.91974146 137.75390625 359.17578125 C134.94055543 356.95303458 132.49489398 354.57172216 130 352 C129.29617188 351.30777344 128.59234375 350.61554688 127.8671875 349.90234375 C127.20976562 349.25394531 126.55234375 348.60554688 125.875 347.9375 C125.21242188 347.28652344 124.54984375 346.63554687 123.8671875 345.96484375 C119 340.84309623 119 340.84309623 119 336 C120.72265625 334.61328125 120.72265625 334.61328125 123.0625 333.3125 C128.31333927 330.08057519 131.52631012 326.02623937 135 321 C129.74192293 320.05164943 125.6241141 320.04293276 120.9375 322.8046875 C118.17325303 324.96771075 115.49774842 327.19207948 112.83886719 329.48095703 C110.86846373 331.10865888 108.83646189 332.60315552 106.7578125 334.08984375 C106.04004639 334.60579102 105.32228027 335.12173828 104.58276367 335.65332031 C103.18735252 336.65124494 101.78670715 337.64190431 100.38012695 338.62402344 C94.79237571 342.69727193 91.42949155 347.06667324 90 354 C89.09887679 366.40975392 90.74934145 376.37688777 95 388 C95.23396484 389.17949219 95.23396484 389.17949219 95.47265625 390.3828125 C95.64667969 390.91648437 95.82070313 391.45015625 96 392 C96.99 392.33 97.98 392.66 99 393 C103 398.25714286 103 398.25714286 103 402 C103.66 402 104.32 402 105 402 C105.59932334 409.07201547 105.59932334 409.07201547 103.0625 413 C99.01169399 415.64542433 95.72271257 415.80260768 91 415 C87.6693278 413.73147006 85.98130414 412.09516476 83.875 409.25 C83.37742187 408.59515625 82.87984375 407.9403125 82.3671875 407.265625 C78.62287747 401.06076838 78.42652598 394.41260977 77.96484375 387.36914062 C77.69907464 382.69349718 77.69907464 382.69349718 74.953125 379.13671875 C74.30859375 378.76160156 73.6640625 378.38648438 73 378 C72.48184559 373.85476473 73.10468349 370.38707119 73.953125 366.32421875 C75.39365369 358.54173986 75.70714465 350.70143845 76.125 342.8125 C76.21161391 341.27275114 76.29884916 339.73303709 76.38671875 338.19335938 C76.59829885 334.46261307 76.80150746 330.73146824 77 327 C78.0219043 326.84978394 78.0219043 326.84978394 79.06445312 326.6965332 C84.52228302 325.88091433 84.52228302 325.88091433 89.21875 323.23046875 C89.6415625 322.55628906 90.064375 321.88210938 90.5 321.1875 C90.95632813 320.47078125 91.41265625 319.7540625 91.8828125 319.015625 C94.59644524 314.11970019 95.56788377 310.67883775 95 305 C94.13509382 302.75039182 93.11895823 300.60486707 92.08984375 298.42578125 C87.72248462 288.70488511 87.6465311 279.43387835 88 269 C87.51789063 269.3609375 87.03578125 269.721875 86.5390625 270.09375 C85.90742188 270.5578125 85.27578125 271.021875 84.625 271.5 C83.68527344 272.19609375 83.68527344 272.19609375 82.7265625 272.90625 C81 274 81 274 79 274 C79 274.66 79 275.32 79 276 C78.13375 276.61875 77.2675 277.2375 76.375 277.875 C70.62649994 282.56960838 67.39453635 289.42287039 66.58984375 296.71875 C66.55121849 301.97178502 66.90533872 306.86551731 68 312 C68.95163851 322.65835132 64.98868468 332.82339106 59.05078125 341.55859375 C55.61067569 345.65395752 51.58767035 348.32446484 47 351 C46.34128906 351.433125 45.68257813 351.86625 45.00390625 352.3125 C39.28886278 355.73439713 33.50648231 355.71994272 27 355 C16.39646264 351.99566442 9.71631428 342.91035241 4 334 C1 328.42663657 1 328.42663657 1 326 C2.16917969 325.93941406 3.33835938 325.87882812 4.54296875 325.81640625 C6.09115614 325.73195966 7.63933268 325.64731375 9.1875 325.5625 C9.95642578 325.52318359 10.72535156 325.48386719 11.51757812 325.44335938 C15.43251075 325.22492966 19.17120688 324.91307892 23 324 C23 323.34 23 322.68 23 322 C23.78375 321.773125 24.5675 321.54625 25.375 321.3125 C28.19354704 320.2226255 28.19354704 320.2226255 29.3125 317.5 C30.08838549 315.11073296 30.08838549 315.11073296 30 313 C29.34 313.99 28.68 314.98 28 316 C27.01 316.33 26.02 316.66 25 317 C22.86731456 309.36361021 23.86881307 303.17563672 27 296 C27.66 296 28.32 296 29 296 C29.2784375 294.0509375 29.2784375 294.0509375 29.5625 292.0625 C31.66204915 282.76033086 39.48218715 275.43207818 47 270 C60.46478932 262.08585522 74.70952419 260.41440731 90 261 C90.12761719 260.23816406 90.25523437 259.47632813 90.38671875 258.69140625 C91.56751918 253.50942218 95.03915123 249.4327356 99 246 C99.66 246 100.32 246 101 246 C101 245.34 101 244.68 101 244 C102.8359375 242.703125 102.8359375 242.703125 105.375 241.25 C109.41712835 238.92804797 109.41712835 238.92804797 113.36328125 236.44921875 C118.26527344 233.26086417 123.03779431 231.24065788 128.625 229.5625 C134.96135843 227.64727972 139.66504823 225.09164453 144 220 C144.33 219.34 144.66 218.68 145 218 C144.33613281 218.40992188 143.67226563 218.81984375 142.98828125 219.2421875 C142.10527344 219.78101563 141.22226562 220.31984375 140.3125 220.875 C139.44238281 221.40867187 138.57226562 221.94234375 137.67578125 222.4921875 C134.04473668 224.53829437 131.20230146 226 127 226 C127.875 222.125 127.875 222.125 129 221 C124.82706556 221.55231233 124.82706556 221.55231233 120.9375 223.0625 C118.52047954 224.23202603 116.65088143 224.14727119 114 224 C115.5885342 219.71095765 118.43127368 217.67654474 122 215 C122.66 215 123.32 215 124 215 C124 214.34 124 213.68 124 213 C122.96939453 213.433125 122.96939453 213.433125 121.91796875 213.875 C121.01691406 214.24625 120.11585938 214.6175 119.1875 215 C118.29417969 215.37125 117.40085937 215.7425 116.48046875 216.125 C114 217 114 217 111 217 C111 217.66 111 218.32 111 219 C109.35 219.33 107.7 219.66 106 220 C106.66 218.68 107.32 217.36 108 216 C107.34 216.165 106.68 216.33 106 216.5 C102.26900206 217.12183299 98.78126622 217.06408926 95 217 C94.67 216.01 94.34 215.02 94 214 C96.05233685 211.7522025 97.00667261 210.9977758 100 210 C94.39 210 88.78 210 83 210 C83.33 208.68 83.66 207.36 84 206 C84.54414551 205.85900879 85.08829102 205.71801758 85.64892578 205.57275391 C88.14150734 204.9256261 90.63325425 204.27533833 93.125 203.625 C93.9809375 203.40328125 94.836875 203.1815625 95.71875 202.953125 C100.20457819 201.7799084 104.62103788 200.53622605 109 199 C101.97654029 199.72341635 95.05834475 200.76311654 88.10546875 201.98242188 C82.66388619 202.88638363 77.5171298 203.12689399 72 203 C72.33 201.68 72.66 200.36 73 199 C83.23 196.36 93.46 193.72 104 191 C98.1343659 192.2974637 98.1343659 192.2974637 92.27734375 193.6328125 C86.70774621 194.8043806 81.29879542 195.20733502 75.625 195.25 C74.94687256 195.25918457 74.26874512 195.26836914 73.57006836 195.27783203 C69.64044642 195.25346379 66.39897972 195.05174776 63 193 C62.27780185 191.35663392 61.60486598 189.69007674 61 188 C65.34121053 187.42706383 69.68284588 186.85749648 74.02490234 186.29101562 C75.50126005 186.09792605 76.97749877 185.90392438 78.45361328 185.70898438 C80.57814225 185.42857516 82.70308072 185.1514734 84.828125 184.875 C86.1059082 184.70742187 87.38369141 184.53984375 88.70019531 184.3671875 C92 184 92 184 96 184 C96 183.34 96 182.68 96 182 C94.90945313 182.2165625 93.81890625 182.433125 92.6953125 182.65625 C67.30948553 187.43649518 67.30948553 187.43649518 57 184 C57.33 182.68 57.66 181.36 58 180 C73.74487472 177.70387244 73.74487472 177.70387244 81 178 C81 177.34 81 176.68 81 176 C85.95 175.01 85.95 175.01 91 174 C89.21722656 174.2165625 89.21722656 174.2165625 87.3984375 174.4375 C77.92595722 175.52304933 68.538487 176.21172485 59 176.25 C58.06333496 176.25902344 57.12666992 176.26804688 56.16162109 176.27734375 C55.28328613 176.27347656 54.40495117 176.26960937 53.5 176.265625 C52.7265625 176.26336914 51.953125 176.26111328 51.15625 176.25878906 C48.67354146 175.96081906 47.08848134 175.37285588 45 174 C44.67 173.01 44.34 172.02 44 171 C48.455 170.01 48.455 170.01 53 169 C51.87980469 168.66226563 50.75960937 168.32453125 49.60546875 167.9765625 C48.13273364 167.52629954 46.66008169 167.07576447 45.1875 166.625 C44.44951172 166.40328125 43.71152344 166.1815625 42.95117188 165.953125 C42.23896484 165.73398438 41.52675781 165.51484375 40.79296875 165.2890625 C40.1383667 165.09006348 39.48376465 164.89106445 38.80932617 164.68603516 C37 164 37 164 34 162 C34.3125 160.0625 34.3125 160.0625 35 158 C35.99 157.67 36.98 157.34 38 157 C36.35 156.34 34.7 155.68 33 155 C33 154.34 33 153.68 33 153 C32.236875 152.938125 31.47375 152.87625 30.6875 152.8125 C28 152 28 152 26.1875 149.4375 C25.795625 148.633125 25.40375 147.82875 25 147 C31.85208977 146.76372104 38.28592075 147.51043429 45.05859375 148.5625 C47.83407876 149.04903997 47.83407876 149.04903997 50 149 C44.65952824 147.04478946 39.55389984 146.36801221 33.92578125 145.7578125 C31 145 31 145 29.10546875 142.9296875 C28.74066406 142.29289063 28.37585938 141.65609375 28 141 C30.31 140.67 32.62 140.34 35 140 C33.83984375 139.56300781 33.83984375 139.56300781 32.65625 139.1171875 C25.95610219 136.48024814 20.52225628 133.59351318 15 129 C14.2678125 128.50757813 13.535625 128.01515625 12.78125 127.5078125 C12.1934375 127.01023437 11.605625 126.51265625 11 126 C11 125.01 11 124.02 11 123 C11.66 123 12.32 123 13 123 C12.34 122.38125 11.68 121.7625 11 121.125 C9 119 9 119 9 117 C8.4225 116.9175 7.845 116.835 7.25 116.75 C4.3840696 115.79468987 3.0009236 114.21530827 1 112 C3.97 111.01 3.97 111.01 7 110 C6.26136719 109.67128906 5.52273437 109.34257812 4.76171875 109.00390625 C-5.71747226 104.09053715 -14.84042555 97.98275859 -21 88 C-18.36 88 -15.72 88 -13 88 C-13.44730469 87.53851563 -13.89460937 87.07703125 -14.35546875 86.6015625 C-21.10528312 79.31924678 -25.44253673 72.03433895 -26 62 C-21.96092093 64.57352063 -18.53302363 67.23452552 -15.0625 70.5625 C-8.94806759 76.22338935 -2.33755863 81.05206041 4.44091797 85.88232422 C6.315759 87.22636153 8.16289623 88.60490616 10 90 C10.33 89.67 10.66 89.34 11 89 C10.55269531 88.63648438 10.10539062 88.27296875 9.64453125 87.8984375 C5.61671245 84.54907858 2.10428527 81.23311628 -1 77 C-1 76.01 -1 75.02 -1 74 C-1.66 74 -2.32 74 -3 74 C-9.38918383 65.59398947 -13 55.59994727 -13 45 C-9.61327261 46.12890913 -9.24760829 46.7291466 -7.3125 49.5625 C-2.05565105 56.77627812 4.28180404 62.36511703 11.25 67.875 C11.85263672 68.35171143 12.45527344 68.82842285 13.07617188 69.31958008 C15.92962004 71.53481973 18.67114498 73.56628522 22 75 C21.278125 74.37351562 20.55625 73.74703125 19.8125 73.1015625 C18.884375 72.28429687 17.95625 71.46703125 17 70.625 C16.071875 69.81289062 15.14375 69.00078125 14.1875 68.1640625 C13.465625 67.44992188 12.74375 66.73578125 12 66 C12 65.34 12 64.68 12 64 C11.34 64 10.68 64 10 64 C7 60.53846154 7 60.53846154 7 58 C6.34 58 5.68 58 5 58 C-2.17607038 49.00829736 -8.01213957 35.22335381 -7.2109375 23.625 C-7.14132813 23.08875 -7.07171875 22.5525 -7 22 C-6.01 22 -5.02 22 -4 22 C-3.4740625 23.3921875 -3.4740625 23.3921875 -2.9375 24.8125 C2.73537901 37.92608543 15.46723042 57.27102432 29 63 C28.29037109 62.43345703 28.29037109 62.43345703 27.56640625 61.85546875 C13.48641844 50.13586876 2.29574297 34.44671989 0 16 C-0.36293985 10.6581226 -0.25582727 5.34394739 0 0 Z " fill="#02025A" transform="translate(169,64)"/>
<path d="M0 0 C3.63 0 7.26 0 11 0 C14.62392821 7.85184445 16.94205631 15.62122925 19 24 C19.66 24 20.32 24 21 24 C23.66557258 30.05022986 25.51030705 35.38914524 26 42 C26.66 42 27.32 42 28 42 C36.55418341 64.68997849 36.55418341 64.68997849 40.0625 74.3125 C40.44535156 75.36050781 40.82820313 76.40851563 41.22265625 77.48828125 C42 80 42 80 42 83 C38.37 83 34.74 83 31 83 C30.34 80.03 29.68 77.06 29 74 C28.34 74 27.68 74 27 74 C26.49528803 72.23050388 25.99639315 70.45934777 25.5 68.6875 C25.2215625 67.70136719 24.943125 66.71523438 24.65625 65.69921875 C24 63 24 63 24 60 C12.12 60 0.24 60 -12 60 C-12.99 63.3 -13.98 66.6 -15 70 C-15.86608688 72.38600836 -16.75779732 74.76305265 -17.6875 77.125 C-18.12449219 78.24132812 -18.56148438 79.35765625 -19.01171875 80.5078125 C-19.33785156 81.33023438 -19.66398437 82.15265625 -20 83 C-23.63 83 -27.26 83 -31 83 C-30.34 80.03 -29.68 77.06 -29 74 C-28.34 74 -27.68 74 -27 74 C-26.90130615 73.4013916 -26.8026123 72.8027832 -26.70092773 72.18603516 C-25.50992882 65.58216034 -23.54171408 59.5980548 -21.0625 53.375 C-20.36577899 51.5911874 -19.66916283 49.80733384 -18.97265625 48.0234375 C-18.46943848 46.74629883 -18.46943848 46.74629883 -17.95605469 45.44335938 C-16.59932973 41.97601939 -15.30015871 38.48894131 -14 35 C-11.19169814 27.57158863 -8.28318889 20.1989315 -5.203125 12.87890625 C-3.41744657 8.60603287 -1.70896487 4.30405968 0 0 Z " fill="#0D0D5D" transform="translate(455,496)"/>
<path d="M0 0 C0.69351563 0.33128906 1.38703125 0.66257812 2.1015625 1.00390625 C9.80041196 5.04342603 14.61152097 14.18219053 17.375 22.0625 C21.16741396 35.73431169 19.586237 49.18877432 13.59765625 62 C8.60889922 70.78216396 0.71284219 77.66647682 -8.875 81.0625 C-20.27317209 83.75628022 -31.90633317 82.59824557 -42.125 76.875 C-51.92765133 70.13567721 -57.67762803 60.58041104 -60 49 C-61.66842223 33.85964753 -59.65562808 20.35385567 -50.6875 7.75 C-37.95046916 -5.28324086 -16.33245313 -9.32310866 0 0 Z M-44.01953125 16.26953125 C-48.47515529 22.41249221 -49.5075666 27.76085114 -49.375 35.125 C-49.36194824 35.9603125 -49.34889648 36.795625 -49.33544922 37.65625 C-49.00090355 49.82154706 -47.29963467 57.73805617 -38.66796875 66.7578125 C-33.43376224 71.15669176 -28.95757843 72.5373798 -22.1875 72.4375 C-21.48262451 72.43137695 -20.77774902 72.42525391 -20.05151367 72.41894531 C-14.24869819 72.24534826 -9.8624163 71.11887727 -5 68 C-4.0925 67.4225 -3.185 66.845 -2.25 66.25 C4.29734619 59.70265381 7.05502717 52.36596238 7.23046875 43.20703125 C7.2265141 41.07547638 7.21193992 38.94391842 7.1875 36.8125 C7.18685547 35.73291016 7.18621094 34.65332031 7.18554688 33.54101562 C7.19726132 27.19549546 7.19726132 27.19549546 6 21 C5.34 21 4.68 21 4 21 C3.855625 20.175 3.71125 19.35 3.5625 18.5 C1.02830124 12.82339477 -3.80187596 8.70346813 -9.2734375 5.7890625 C-23.69553746 1.61533157 -34.3946975 5.55445085 -44.01953125 16.26953125 Z " fill="#0F0E5F" transform="translate(270,499)"/>
<path d="M0 0 C3.63 0 7.26 0 11 0 C11.33 11.88 11.66 23.76 12 36 C20.59602401 25.91512127 20.59602401 25.91512127 28.66015625 15.51171875 C29.10230469 15.01285156 29.54445313 14.51398438 30 14 C30.66 14 31.32 14 32 14 C32.25007813 13.44828125 32.50015625 12.8965625 32.7578125 12.328125 C35.35118233 7.46759539 38.61581753 3.34928961 43 0 C47.14237639 -0.82351435 50.84041828 -0.63343884 55 0 C52.75600175 4.08675179 50.07410837 7.24360625 46.875 10.625 C43.17503915 14.5751077 39.6408322 18.58852518 36.25 22.8125 C33.17225236 26.64037968 29.97312008 30.15369964 26.44140625 33.5625 C24.75720337 35.24213865 23.33696637 37.03387299 22 39 C23.57585506 42.73503769 25.92218569 45.25279431 28.6875 48.1875 C32.48287853 52.28366501 36.01264828 56.44126734 39.33203125 60.9296875 C41.38512214 63.47802045 43.66907374 65.7037086 46 68 C47.76458856 69.84028836 49.51462721 71.69463617 51.25 73.5625 C52.55710937 74.95662109 52.55710937 74.95662109 53.890625 76.37890625 C56 79 56 79 57 83 C52.71 83 48.42 83 44 83 C43.67 82.01 43.34 81.02 43 80 C42.34 80 41.68 80 41 80 C39.44140625 78.26953125 39.44140625 78.26953125 37.5625 75.8125 C34.33279243 71.67169952 31.03083018 67.62040577 27.625 63.625 C22.36711783 57.45553454 17.19095449 51.22914539 12 45 C11.67 57.54 11.34 70.08 11 83 C7.37 83 3.74 83 0 83 C0 55.61 0 28.22 0 0 Z " fill="#0E0E5E" transform="translate(304,496)"/>
<path d="M0 0 C13.86 0 27.72 0 42 0 C42 2.97 42 5.94 42 9 C31.44 9 20.88 9 10 9 C10 17.91 10 26.82 10 36 C19.9 36 29.8 36 40 36 C40 39.3 40 42.6 40 46 C30.1 46 20.2 46 10 46 C10 55.24 10 64.48 10 74 C21.22 74 32.44 74 44 74 C44 76.97 44 79.94 44 83 C29.48 83 14.96 83 0 83 C0 55.61 0 28.22 0 0 Z " fill="#040357" transform="translate(373,496)"/>
<path d="M0 0 C0.98097656 -0.01224609 1.96195313 -0.02449219 2.97265625 -0.03710938 C8.09187218 -0.04747216 12.33621982 0.13400613 17.125 2.1875 C17.125 6.1475 17.125 10.1075 17.125 14.1875 C15.805 13.8575 14.485 13.5275 13.125 13.1875 C13.125 12.5275 13.125 11.8675 13.125 11.1875 C8.46792058 10.28659852 3.91944543 9.97331416 -0.8125 9.9375 C-1.82860352 9.9065625 -1.82860352 9.9065625 -2.86523438 9.875 C-8.02573195 9.83541804 -11.40507927 10.79309941 -15.875 13.1875 C-17.92856094 16.26784141 -18.26573779 17.36927869 -18.4375 20.9375 C-18.53224609 22.16726563 -18.53224609 22.16726563 -18.62890625 23.421875 C-17.19093935 28.69690383 -13.02207223 31.89009802 -8.4597168 34.64697266 C-4.91687441 36.49899678 -1.3162233 38.2104132 2.29882812 39.91601562 C9.80805452 43.6189723 15.45444265 48.18166398 20.125 55.1875 C21.06368057 62.58064781 21.7216153 70.17605137 17.125 76.4375 C12.26225789 81.60601291 6.09432307 84.85378135 -1.03808594 85.33276367 C-3.5671912 85.35750145 -6.09576478 85.37315653 -8.625 85.375 C-9.49382812 85.38724609 -10.36265625 85.39949219 -11.2578125 85.41210938 C-18.01316822 85.42732414 -24.10628935 85.0333071 -29.875 81.1875 C-30.16796875 78.5859375 -30.16796875 78.5859375 -30.0625 75.5625 C-30.03542969 74.55960938 -30.00835937 73.55671875 -29.98046875 72.5234375 C-29.94566406 71.75257813 -29.91085938 70.98171875 -29.875 70.1875 C-28.45708592 70.64195964 -27.04071954 71.10124944 -25.625 71.5625 C-24.44164062 71.94535156 -24.44164062 71.94535156 -23.234375 72.3359375 C-20.875 73.1875 -20.875 73.1875 -19.0625 74.26953125 C-15.81400355 75.63273958 -12.59117931 75.52722654 -9.125 75.5 C-8.41142334 75.49581055 -7.69784668 75.49162109 -6.96264648 75.48730469 C-1.57145067 75.37159002 2.44367566 74.86254248 7.125 72.1875 C8.37554407 69.00429691 8.22778947 65.82181515 8.1875 62.4375 C8.17847656 61.45265625 8.16945312 60.4678125 8.16015625 59.453125 C8.14855469 58.70546875 8.13695312 57.9578125 8.125 57.1875 C7.465 57.1875 6.805 57.1875 6.125 57.1875 C5.05185547 56.07375 5.05185547 56.07375 3.95703125 54.9375 C0.78465072 51.85700911 -2.27206151 50.13981254 -6.1875 48.1875 C-7.52577671 47.49679746 -8.86302734 46.80410304 -10.19921875 46.109375 C-10.83520996 45.78001953 -11.47120117 45.45066406 -12.12646484 45.11132812 C-15.50480842 43.32640044 -18.71391065 41.32888311 -21.875 39.1875 C-22.803125 38.589375 -23.73125 37.99125 -24.6875 37.375 C-29.29431811 32.76818189 -30.0822139 27.45470522 -30.375 21.1875 C-30.18380808 15.34879301 -29.0605988 11.35453738 -24.875 7.1875 C-16.4985681 1.00328453 -10.15860709 0.0066223 0 0 Z " fill="#0D0C5D" transform="translate(178.875,494.8125)"/>
<path d="M0 0 C2 1 2 1 2.74609375 2.71826172 C3.08833984 3.81291748 3.08833984 3.81291748 3.4375 4.9296875 C3.69273437 5.72503906 3.94796875 6.52039063 4.2109375 7.33984375 C4.60152344 8.59474609 4.60152344 8.59474609 5 9.875 C5.51664009 11.51955236 6.03732159 13.16284186 6.5625 14.8046875 C6.90474609 15.90272705 6.90474609 15.90272705 7.25390625 17.02294922 C8.01680977 19.26918259 8.01680977 19.26918259 10 22 C10.33 21.01 10.66 20.02 11 19 C10.34 19 9.68 19 9 19 C9.25 15.625 9.25 15.625 10 12 C12.0625 10.5625 12.0625 10.5625 14 10 C17.27037845 12.62379933 18.02748522 15.55328305 19.1875 19.5 C19.53167969 20.6446875 19.87585938 21.789375 20.23046875 22.96875 C21 26 21 26 21 29 C21.66 29 22.32 29 23 29 C31.55418341 51.68997849 31.55418341 51.68997849 35.0625 61.3125 C35.44535156 62.36050781 35.82820313 63.40851562 36.22265625 64.48828125 C37 67 37 67 37 70 C33.37 70 29.74 70 26 70 C25.34 67.03 24.68 64.06 24 61 C23.34 61 22.68 61 22 61 C21.49528803 59.23050388 20.99639315 57.45934777 20.5 55.6875 C20.2215625 54.70136719 19.943125 53.71523438 19.65625 52.69921875 C19 50 19 50 19 47 C17.515 46.505 17.515 46.505 16 46 C16.66 46 17.32 46 18 46 C18 44.68 18 43.36 18 42 C17.0409375 41.814375 17.0409375 41.814375 16.0625 41.625 C15.381875 41.41875 14.70125 41.2125 14 41 C13.67 40.34 13.34 39.68 13 39 C0.13 38.505 0.13 38.505 -13 38 C-11.87558267 30.12907867 -11.87558267 30.12907867 -10.29296875 26.328125 C-9.95523437 25.50344727 -9.6175 24.67876953 -9.26953125 23.82910156 C-8.91246094 22.97799805 -8.55539062 22.12689453 -8.1875 21.25 C-7.46095432 19.4796936 -6.73568421 17.70886314 -6.01171875 15.9375 C-5.66415527 15.09058594 -5.3165918 14.24367188 -4.95849609 13.37109375 C-3.17571011 8.9609008 -1.56586098 4.49154859 0 0 Z " fill="#100F5F" transform="translate(460,509)"/>
<path d="M0 0 C2.57705503 1.28852751 2.67769971 2.24163966 3.69140625 4.89453125 C3.99626953 5.68537109 4.30113281 6.47621094 4.61523438 7.29101562 C4.92783203 8.12310547 5.24042969 8.95519531 5.5625 9.8125 C5.87896484 10.63298828 6.19542969 11.45347656 6.52148438 12.29882812 C8.93396206 18.61429519 10.16979385 23.75383475 10.125 30.5625 C10.12306641 31.26761719 10.12113281 31.97273438 10.11914062 32.69921875 C10.0716658 38.5016978 9.68383841 44.23621911 9 50 C7.5903653 50.70180531 6.17192359 51.38593958 4.75 52.0625 C3.96109375 52.44535156 3.1721875 52.82820313 2.359375 53.22265625 C-0.32756684 54.10792351 -1.46681096 54.26659452 -4 53 C-6.93153139 47.38852386 -7.34472161 41.20498896 -7 35 C-4.525 34.505 -4.525 34.505 -2 34 C-1.74969023 31.58380177 -1.74969023 31.58380177 -2 29 C-2.99 28.34 -3.98 27.68 -5 27 C-5.43237305 24.84521484 -5.43237305 24.84521484 -5.51171875 22.2109375 C-5.54716797 21.26992188 -5.58261719 20.32890625 -5.61914062 19.359375 C-5.64169922 18.37453125 -5.66425781 17.3896875 -5.6875 16.375 C-5.72166016 15.38242187 -5.75582031 14.38984375 -5.79101562 13.3671875 C-5.87365657 10.91157094 -5.94275127 8.45631859 -6 6 C-4.02 5.34 -2.04 4.68 0 4 C0 2.68 0 1.36 0 0 Z " fill="#09085B" transform="translate(489,293)"/>
<path d="M0 0 C0.66 0 1.32 0 2 0 C2.495 7.92 2.495 7.92 3 16 C4.32 15.01 5.64 14.02 7 13 C7.66 13.66 8.32 14.32 9 15 C9.99 11.04 10.98 7.08 12 3 C12.97509048 6.90036192 12.95986555 8.08991458 12.125 11.8125 C10.88703856 17.83941756 10.67595749 23.78099398 10.5390625 29.91015625 C10.27222656 31.43962891 10.27222656 31.43962891 10 33 C8.05078125 34.28515625 8.05078125 34.28515625 6 35 C4.9935725 36.66279327 3.99414593 38.32983484 3 40 C-1.40999618 44.40999618 -7.26336551 46.74599224 -13 49 C-13.66 49 -14.32 49 -15 49 C-16.98153392 42.23378663 -17.21525347 34.61233901 -14 28.25 C-13.34 27.1775 -12.68 26.105 -12 25 C-8.65626525 25.55728913 -5.96687001 26.35173889 -3 28 C-3.061875 27.278125 -3.12375 26.55625 -3.1875 25.8125 C-3 23 -3 23 -1.53125 20.84375 C0.49220088 17.08591265 0.55600719 13.89151302 0.6875 9.6875 C0.72166016 8.94693359 0.75582031 8.20636719 0.79101562 7.44335938 C0.87293554 5.62941836 0.93815822 3.81473647 1 2 C0.34 1.67 -0.32 1.34 -1 1 C-0.67 0.67 -0.34 0.34 0 0 Z " fill="#100F60" transform="translate(445,305)"/>
<path d="M0 0 C2 1 2 1 3.33203125 4.5078125 C3.83303384 6.04444575 4.32600103 7.58371349 4.8125 9.125 C5.34357877 10.76568044 5.87483168 12.40630451 6.40625 14.046875 C6.67179687 14.87509766 6.93734375 15.70332031 7.2109375 16.55664062 C8.37904268 20.1737188 9.59682214 23.77369583 10.8125 27.375 C12.00473459 30.9169785 13.09307521 34.37230082 14 38 C5.09 38 -3.82 38 -13 38 C-11.87558267 30.12907867 -11.87558267 30.12907867 -10.29296875 26.328125 C-9.95523437 25.50344727 -9.6175 24.67876953 -9.26953125 23.82910156 C-8.91246094 22.97799805 -8.55539062 22.12689453 -8.1875 21.25 C-7.46095432 19.4796936 -6.73568421 17.70886314 -6.01171875 15.9375 C-5.66415527 15.09058594 -5.3165918 14.24367188 -4.95849609 13.37109375 C-3.17571011 8.9609008 -1.56586098 4.49154859 0 0 Z " fill="#F1F1F7" transform="translate(460,509)"/>
<path d="M0 0 C7.01075447 6.7846011 13.47847099 14.06319455 19.296875 21.89453125 C21.36542185 24.45174857 23.65718207 26.69204544 26 29 C27.76458856 30.84028836 29.51462721 32.69463617 31.25 34.5625 C32.55710937 35.95662109 32.55710937 35.95662109 33.890625 37.37890625 C36 40 36 40 37 44 C32.71 44 28.42 44 24 44 C23.67 43.01 23.34 42.02 23 41 C22.34 41 21.68 41 21 41 C19.44140625 39.26953125 19.44140625 39.26953125 17.5625 36.8125 C14.26893289 32.59074579 10.90143318 28.45657976 7.4375 24.375 C6.97126221 23.82183105 6.50502441 23.26866211 6.0246582 22.69873047 C2.81868206 18.91020844 -0.49469174 15.24514543 -3.953125 11.68359375 C-5 10 -5 10 -4.73046875 7.953125 C-4.48941406 7.30859375 -4.24835938 6.6640625 -4 6 C-3.690625 5.113125 -3.38125 4.22625 -3.0625 3.3125 C-2 1 -2 1 0 0 Z " fill="#0D0C5C" transform="translate(324,535)"/>
<path d="M0 0 C2.70705488 3.3384591 3.51178906 5.70374369 4 10 C4.66 10 5.32 10 6 10 C6.495 11.093125 6.99 12.18625 7.5 13.3125 C10.34081155 19.00419689 14.17463248 23.94135762 18 29 C19.08356198 30.43732765 20.16692077 31.87480854 21.25 33.3125 C21.72179687 33.93769531 22.19359375 34.56289062 22.6796875 35.20703125 C24.54917386 37.7457716 26.28195777 40.35685811 28 43 C26.71937515 44.7074998 25.38232443 46.37373596 24 48 C23.34 48 22.68 48 22 48 C21.67 49.32 21.34 50.64 21 52 C20.01 52 19.02 52 18 52 C6.17686354 40.17686354 -0.04707399 25.77772089 -0.26367188 9.1809082 C-0.24445234 6.11504964 -0.14660642 3.06244526 0 0 Z " fill="#0E0D5E" transform="translate(169,64)"/>
<path d="M0 0 C0.66 0 1.32 0 2 0 C2.29390625 0.82177734 2.29390625 0.82177734 2.59375 1.66015625 C6.7671033 12.72314021 12.34161818 23.00223328 19.1875 32.625 C19.5911377 33.19250977 19.99477539 33.76001953 20.41064453 34.34472656 C23.01765005 37.90525474 25.82195914 40.96307996 29 44 C28.67 44.66 28.34 45.32 28 46 C26.35 44.68 24.7 43.36 23 42 C20.16977903 45.99560608 21.23789554 49.42737323 22 54 C21.67 53.34 21.34 52.68 21 52 C20.38125 51.7525 19.7625 51.505 19.125 51.25 C16.12506832 49.4853343 15.54045852 47.09210682 14 44 C12.71688113 42.29005308 11.40331973 40.60258707 10.0625 38.9375 C5.64742803 32.99132967 3.76640023 27.12138196 2 20 C1.66355469 18.92105469 1.66355469 18.92105469 1.3203125 17.8203125 C-0.45467296 11.96042899 -0.18217427 6.07247582 0 0 Z " fill="#10105F" transform="translate(186,64)"/>
<path d="M0 0 C1.43085938 0.00193359 1.43085938 0.00193359 2.890625 0.00390625 C7.88750676 0.06636727 12.07320986 0.41325917 16.75 2.375 C16.75 6.335 16.75 10.295 16.75 14.375 C15.43 14.045 14.11 13.715 12.75 13.375 C12.75 12.715 12.75 12.055 12.75 11.375 C8.09292058 10.47409852 3.54444543 10.16081416 -1.1875 10.125 C-2.20360352 10.0940625 -2.20360352 10.0940625 -3.24023438 10.0625 C-8.41140231 10.0228362 -11.70097035 11.16787821 -16.25 13.375 C-19.3255799 14.30482648 -20.57447019 14.64886344 -23.5625 13.4375 C-24.119375 13.086875 -24.67625 12.73625 -25.25 12.375 C-24.59 11.715 -23.93 11.055 -23.25 10.375 C-23.085 9.42625 -22.92 8.4775 -22.75 7.5 C-20.70105841 3.23137169 -18.42828916 2.78978443 -14.12890625 1.18212891 C-9.40202426 -0.14309768 -4.87725852 -0.12729109 0 0 Z " fill="#0D0C5D" transform="translate(179.25,494.625)"/>
<path d="M0 0 C-0.66 1.65 -1.32 3.3 -2 5 C-1.34 5.33 -0.68 5.66 0 6 C0 6.66 0 7.32 0 8 C-9.27403502 9.48809731 -18.35711273 10.21270814 -27.75 10.25 C-29.17820068 10.26353516 -29.17820068 10.26353516 -30.63525391 10.27734375 C-31.53421387 10.27347656 -32.43317383 10.26960937 -33.359375 10.265625 C-34.15827148 10.26336914 -34.95716797 10.26111328 -35.78027344 10.25878906 C-38.29736875 9.96533096 -39.88684307 9.39596428 -42 8 C-42.33 7.01 -42.66 6.02 -43 5 C-40.03 4.34 -37.06 3.68 -34 3 C-34 2.67 -34 2.34 -34 2 C-27.5847321 1.09547763 -21.22092176 0.70135443 -14.75 0.4375 C-13.28046875 0.37272461 -13.28046875 0.37272461 -11.78125 0.30664062 C-7.84771107 0.13736948 -3.93816488 0 0 0 Z " fill="#090856" transform="translate(256,230)"/>
<path d="M0 0 C1.25159912 0.00523682 2.50319824 0.01047363 3.79272461 0.01586914 C4.78942421 0.01799156 4.78942421 0.01799156 5.80625916 0.02015686 C7.93590735 0.02577021 10.06545175 0.03832485 12.19506836 0.05102539 C13.63582205 0.05603868 15.07657739 0.06060188 16.51733398 0.06469727 C20.05577938 0.07574394 23.59416375 0.09301747 27.13256836 0.11352539 C27.46256836 1.10352539 27.79256836 2.09352539 28.13256836 3.11352539 C30.60756836 3.60852539 30.60756836 3.60852539 33.13256836 4.11352539 C32.75756836 6.05102539 32.75756836 6.05102539 32.13256836 8.11352539 C27.82583894 10.2668901 22.05931831 9.29938017 17.27416992 9.29882812 C15.14082971 9.30101691 13.0080047 9.31918459 10.87475586 9.33813477 C9.52319513 9.34106833 8.17163194 9.34305337 6.82006836 9.34399414 C5.58643555 9.34810303 4.35280273 9.35221191 3.08178711 9.35644531 C0.13256836 9.11352539 0.13256836 9.11352539 -1.86743164 7.11352539 C-0.54743164 6.78352539 0.77256836 6.45352539 2.13256836 6.11352539 C1.80256836 4.79352539 1.47256836 3.47352539 1.13256836 2.11352539 C0.80256836 3.10352539 0.47256836 4.09352539 0.13256836 5.11352539 C-0.52743164 5.11352539 -1.18743164 5.11352539 -1.86743164 5.11352539 C-2.52743164 3.79352539 -3.18743164 2.47352539 -3.86743164 1.11352539 C-2.86743164 0.11352539 -2.86743164 0.11352539 0 0 Z " fill="#020154" transform="translate(445.867431640625,546.886474609375)"/>
<path d="M0 0 C0.8971875 0.99 0.8971875 0.99 1.8125 2 C6.38420074 4.86851811 10.72130668 4.67655384 16 4 C18.26707495 3.06373118 18.26707495 3.06373118 20 2 C18.9024777 4.99324263 18.32317108 5.84610901 15.375 7.25 C14.199375 7.62125 14.199375 7.62125 13 8 C14.65 8 16.3 8 18 8 C17.67 8.66 17.34 9.32 17 10 C16.01 10 15.02 10 14 10 C14 10.66 14 11.32 14 12 C15.98 11.34 17.96 10.68 20 10 C20 10.66 20 11.32 20 12 C19.01 12.495 19.01 12.495 18 13 C18.185625 13.639375 18.37125 14.27875 18.5625 14.9375 C19.15333516 19.07334611 18.58271759 22.8851173 18 27 C14.06048404 25.15014033 11.21678125 22.92434659 8 20 C8 19.34 8 18.68 8 18 C7.01 17.67 6.02 17.34 5 17 C1.18250406 11.96090536 0 6.20468989 0 0 Z " fill="#353578" transform="translate(331,224)"/>
<path d="M0 0 C7.8275629 -0.26991596 15.28275989 0.72311365 23 2 C23.94359375 2.14566406 24.8871875 2.29132813 25.859375 2.44140625 C26.56578125 2.62574219 27.2721875 2.81007812 28 3 C28.33 3.66 28.66 4.32 29 5 C24.8794254 6.99785435 21.54805635 7.17835515 17 7 C17.474375 8.0725 17.94875 9.145 18.4375 10.25 C19.54149474 12.81562158 20.39291984 15.26813926 21 18 C21.33 18.66 21.66 19.32 22 20 C20.39402675 19.54803755 18.79027492 19.08817673 17.1875 18.625 C15.84751953 18.24214844 15.84751953 18.24214844 14.48046875 17.8515625 C12 17 12 17 9 15 C9.3125 13.0625 9.3125 13.0625 10 11 C10.99 10.67 11.98 10.34 13 10 C10.525 9.01 10.525 9.01 8 8 C8 7.34 8 6.68 8 6 C6.8553125 5.9071875 6.8553125 5.9071875 5.6875 5.8125 C3 5 3 5 1.1875 2.4375 C0.795625 1.633125 0.40375 0.82875 0 0 Z " fill="#0F0E5C" transform="translate(194,211)"/>
<path d="M0 0 C0.495 0.99 0.495 0.99 1 2 C1.99 2.33 2.98 2.66 4 3 C3.34 3.33 2.68 3.66 2 4 C3.32 4.66 4.64 5.32 6 6 C6 6.33 6 6.66 6 7 C2.66749315 7.65014606 -0.66614243 8.2943192 -4 8.9375 C-4.93457031 9.11990234 -5.86914062 9.30230469 -6.83203125 9.49023438 C-13.85169125 10.84016899 -20.82165982 12.17466157 -28 12.0625 C-28.763125 12.05347656 -29.52625 12.04445313 -30.3125 12.03515625 C-31.1478125 12.01775391 -31.1478125 12.01775391 -32 12 C-31.67 10.68 -31.34 9.36 -31 8 C-20.77 5.36 -10.54 2.72 0 0 Z " fill="#080756" transform="translate(273,255)"/>
<path d="M0 0 C4.23796819 2.70029831 7.9200752 5.57685821 11.625 9 C13.00558594 10.2684375 13.00558594 10.2684375 14.4140625 11.5625 C16.6510746 13.67110355 18.8416919 15.81129319 21 18 C19.02 18.66 17.04 19.32 15 20 C14.67 21.98 14.34 23.96 14 26 C10.23626187 23.24035724 7.77786473 20.58066386 5.3125 16.625 C4.73113281 15.70976562 4.14976562 14.79453125 3.55078125 13.8515625 C1.05674066 9.26554328 -0.30803195 5.23654312 0 0 Z " fill="#100F5D" transform="translate(143,126)"/>
<path d="M0 0 C3.69227963 2.03689682 6.46310464 4.20553218 9.3125 7.3125 C10.00988281 8.05113281 10.70726562 8.78976562 11.42578125 9.55078125 C13.36389115 12.56615323 13.29949057 14.48225488 13 18 C12.01 17.01 11.02 16.02 10 15 C9.3503125 15.7115625 9.3503125 15.7115625 8.6875 16.4375 C7 18 7 18 4 19 C3.89042969 19.75925781 3.78085938 20.51851562 3.66796875 21.30078125 C3.50941406 22.29464844 3.35085937 23.28851562 3.1875 24.3125 C3.03667969 25.29863281 2.88585937 26.28476562 2.73046875 27.30078125 C1.96563295 30.12699269 1.24741238 31.1959128 -1 33 C-1.99 32.67 -2.98 32.34 -4 32 C-3.360625 31.5875 -2.72125 31.175 -2.0625 30.75 C0.34434427 28.70782911 0.49392824 28.03643058 1 25 C1.06688591 23.08438746 1.08531719 21.16664408 1.0625 19.25 C1.04896484 17.77273438 1.04896484 17.77273438 1.03515625 16.265625 C1.02355469 15.51796875 1.01195312 14.7703125 1 14 C0.34 14 -0.32 14 -1 14 C-2.7143618 12.04072937 -4.38405168 10.04119788 -6 8 C-5.360625 7.896875 -4.72125 7.79375 -4.0625 7.6875 C-3.381875 7.460625 -2.70125 7.23375 -2 7 C-1.67 6.01 -1.34 5.02 -1 4 C-0.34 4 0.32 4 1 4 C0.67 2.68 0.34 1.36 0 0 Z " fill="#141461" transform="translate(186,538)"/>
<path d="M0 0 C3.63 0 7.26 0 11 0 C11 2.97 11 5.94 11 9 C1.1 9 -8.8 9 -19 9 C-19 18.24 -19 27.48 -19 37 C-7.78 37 3.44 37 15 37 C15 37.33 15 37.66 15 38 C3.45 38 -8.1 38 -20 38 C-20 27.77 -20 17.54 -20 7 C-11.42 6.67 -2.84 6.34 6 6 C6.33 5.01 6.66 4.02 7 3 C7.66 2.34 8.32 1.68 9 1 C6.03 1 3.06 1 0 1 C0 0.67 0 0.34 0 0 Z " fill="#232262" transform="translate(402,533)"/>
<path d="M0 0 C-6.25858705 10.54455354 -6.25858705 10.54455354 -10.03125 11.53125 C-12.0167681 11.73267937 -14.00856753 11.86941426 -16 12 C-16.66 12.66 -17.32 13.32 -18 14 C-18.99 14 -19.98 14 -21 14 C-18.31254063 2.05573611 -11.53344972 -1.36356056 0 0 Z " fill="#0A0958" transform="translate(359,496)"/>
<path d="M0 0 C-1.875 4.75 -1.875 4.75 -3 7 C0.05263664 7.98120464 1.94736336 7.98120464 5 7 C6.32 8.65 7.64 10.3 9 12 C7.73308493 12.67408308 6.46129251 13.33900497 5.1875 14 C4.47980469 14.37125 3.77210938 14.7425 3.04296875 15.125 C1 16 1 16 -2 16 C-1.125 12.125 -1.125 12.125 0 11 C-4.17293444 11.55231233 -4.17293444 11.55231233 -8.0625 13.0625 C-10.47952046 14.23202603 -12.34911857 14.14727119 -15 14 C-13.4114658 9.71095765 -10.56872632 7.67654474 -7 5 C-6.34 5 -5.68 5 -5 5 C-5 4.34 -5 3.68 -5 3 C-5.66 2.67 -6.32 2.34 -7 2 C-2.25 0 -2.25 0 0 0 Z " fill="#080759" transform="translate(298,274)"/>
<path d="M0 0 C3.40045103 1.13348368 3.87668187 1.8520486 5.875 4.6875 C8.45045477 8.2609435 11.14770205 11.64435536 14 15 C12.68 15 11.36 15 10 15 C10.185625 15.680625 10.37125 16.36125 10.5625 17.0625 C11.08523943 20.57232191 10.61378577 23.52188063 10 27 C2.76506166 20.85030241 1.47660094 11.90435114 0 3 C0 2.01 0 1.02 0 0 Z " fill="#1E1D67" transform="translate(156,109)"/>
<path d="M0 0 C0.99 0 1.98 0 3 0 C3.350625 0.928125 3.70125 1.85625 4.0625 2.8125 C6.00023911 7.41227877 8.79147555 11.42173187 11.57421875 15.546875 C13 18 13 18 13 21 C11.68 21 10.36 21 9 21 C8.34 21.33 7.68 21.66 7 22 C7.33 22.33 7.66 22.66 8 23 C8.04063832 24.66617115 8.042721 26.33388095 8 28 C3.14206 23.14206 0.41509746 13.48681865 -0.390625 6.71875 C-0.37755744 4.44499397 -0.29253754 2.2536225 0 0 Z " fill="#12115F" transform="translate(162,86)"/>
<path d="M0 0 C1.32711703 2.58529291 2.47764329 5.1812012 3.5625 7.875 C5.49375166 12.24572743 7.87725561 16.22803898 10.4375 20.25 C10.80883057 20.84022949 11.18016113 21.43045898 11.56274414 22.03857422 C14.01857237 25.82261449 16.81406994 28.83092671 20 32 C20 32.66 20 33.32 20 34 C20.88945312 34.38285156 20.88945312 34.38285156 21.796875 34.7734375 C24.21224538 36.11816498 25.51211706 37.49214367 27.25 39.625 C27.77078125 40.25664063 28.2915625 40.88828125 28.828125 41.5390625 C29.40820312 42.26222656 29.40820312 42.26222656 30 43 C25.24486322 40.83283589 21.81276587 37.51194214 18 34 C17.36964844 33.43539062 16.73929688 32.87078125 16.08984375 32.2890625 C11.53531372 28.00574678 7.7753225 23.25897226 4.0625 18.25 C3.57740967 17.59966797 3.09231934 16.94933594 2.5925293 16.27929688 C2.14047119 15.65603516 1.68841309 15.03277344 1.22265625 14.390625 C0.81797119 13.83407227 0.41328613 13.27751953 -0.00366211 12.70410156 C-2.08748872 9.13999724 -2.07800409 7.31201636 -1.0625 3.25 C-0.711875 2.1775 -0.36125 1.105 0 0 Z " fill="#EBECF6" transform="translate(170,86)"/>
<path d="M0 0 C0.33 0 0.66 0 1 0 C1.25394531 0.9178125 1.50789062 1.835625 1.76953125 2.78125 C2.82066728 6.52912078 3.90343293 10.26519776 5 14 C5.21527344 14.76699219 5.43054688 15.53398438 5.65234375 16.32421875 C7.69950746 22.70655266 11.94134303 27.75555964 16 33 C15.67 33.66 15.34 34.32 15 35 C13.74351577 33.79841071 12.49514546 32.58833517 11.25 31.375 C10.55390625 30.70210937 9.8578125 30.02921875 9.140625 29.3359375 C6.74726051 26.72420033 4.92982786 23.96896593 3 21 C1.43085196 18.86450383 -0.15248441 16.73935886 -1.75 14.625 C-2.36681641 13.80708984 -2.36681641 13.80708984 -2.99609375 12.97265625 C-3.9959115 11.64731644 -4.99774159 10.32349508 -6 9 C-5.19175781 8.39671875 -4.38351563 7.7934375 -3.55078125 7.171875 C-0.6970249 4.74203039 -0.30381023 3.64572278 0 0 Z " fill="#E7E7F2" transform="translate(186,76)"/>
<path d="M0 0 C-0.33 0.66 -0.66 1.32 -1 2 C-3.28515625 2.4140625 -3.28515625 2.4140625 -6.0625 2.625 C-7.44115234 2.73714844 -7.44115234 2.73714844 -8.84765625 2.8515625 C-9.55792969 2.90054688 -10.26820313 2.94953125 -11 3 C-11 3.66 -11 4.32 -11 5 C-13.52019972 5.33885038 -16.04098516 5.67120335 -18.5625 6 C-19.26697266 6.09539062 -19.97144531 6.19078125 -20.69726562 6.2890625 C-25.17367855 6.86666417 -29.48661238 7.09489383 -34 7 C-34.33 8.32 -34.66 9.64 -35 11 C-29.72 11.33 -24.44 11.66 -19 12 C-19 12.33 -19 12.66 -19 13 C-21.62527189 13.05382106 -24.24944713 13.09358313 -26.875 13.125 C-27.62136719 13.14175781 -28.36773437 13.15851563 -29.13671875 13.17578125 C-31.09194461 13.1933959 -33.04742021 13.10320189 -35 13 C-35.66 12.34 -36.32 11.68 -37 11 C-36.625 8.375 -36.625 8.375 -36 6 C-34.02 6 -32.04 6 -30 6 C-30 5.34 -30 4.68 -30 4 C-32.97 4 -35.94 4 -39 4 C-39 3.67 -39 3.34 -39 3 C-37.88141602 2.91697632 -37.88141602 2.91697632 -36.74023438 2.83227539 C-33.32666594 2.577741 -29.91333503 2.32014467 -26.5 2.0625 C-25.32695312 1.97548828 -24.15390625 1.88847656 -22.9453125 1.79882812 C-15.35921973 1.22347839 -7.59828522 -0.23744641 0 0 Z " fill="#ADAED1" transform="translate(261,237)"/>
<path d="M0 0 C0.66 0.33 1.32 0.66 2 1 C1.45730469 1.26554687 0.91460937 1.53109375 0.35546875 1.8046875 C-0.35996094 2.15789062 -1.07539063 2.51109375 -1.8125 2.875 C-2.52019531 3.22304688 -3.22789062 3.57109375 -3.95703125 3.9296875 C-6.21246418 5.0656486 -6.21246418 5.0656486 -9 7 C-6.69 7.33 -4.38 7.66 -2 8 C-3.98 10.31 -5.96 12.62 -8 15 C-5.525 15.495 -5.525 15.495 -3 16 C-3 16.33 -3 16.66 -3 17 C-5.64 17 -8.28 17 -11 17 C-11.33 16.01 -11.66 15.02 -12 14 C-9.94766315 11.7522025 -8.99332739 10.9977758 -6 10 C-11.61 10 -17.22 10 -23 10 C-22.67 8.68 -22.34 7.36 -22 6 C-21.44014404 5.85377197 -20.88028809 5.70754395 -20.3034668 5.55688477 C-17.76453929 4.89312491 -15.22601658 4.22782962 -12.6875 3.5625 C-11.80642578 3.33240234 -10.92535156 3.10230469 -10.01757812 2.86523438 C-9.17001953 2.64287109 -8.32246094 2.42050781 -7.44921875 2.19140625 C-6.27879028 1.88505249 -6.27879028 1.88505249 -5.0847168 1.57250977 C-3.37394724 1.10269426 -1.6830666 0.5610222 0 0 Z " fill="#464481" transform="translate(275,264)"/>
<path d="M0 0 C-0.33 1.98 -0.66 3.96 -1 6 C-1.66 6 -2.32 6 -3 6 C-3.66 7.98 -4.32 9.96 -5 12 C-4.21625 11.34 -3.4325 10.68 -2.625 10 C0 8 0 8 2 8 C1.45912682 11.78611227 -0.11722332 13.55400767 -3 16 C-3.66 16 -4.32 16 -5 16 C-5 15.34 -5 14.68 -5 14 C-6.65 14 -8.3 14 -10 14 C-10.33 13.34 -10.66 12.68 -11 12 C-13.64 12 -16.28 12 -19 12 C-19 11.34 -19 10.68 -19 10 C-18.05125 9.835 -17.1025 9.67 -16.125 9.5 C-11.26218511 8.1674495 -7.89204915 4.91168701 -4.13671875 1.6796875 C-2 0 -2 0 0 0 Z " fill="#161460" transform="translate(456,154)"/>
<path d="M0 0 C0.515625 0.309375 1.03125 0.61875 1.5625 0.9375 C4.66665423 2.29059287 7.65115007 2.61359424 11 3 C10.01 3.33 9.02 3.66 8 4 C8 4.66 8 5.32 8 6 C8.9075 5.62875 9.815 5.2575 10.75 4.875 C14 4 14 4 16.375 4.875 C16.91125 5.24625 17.4475 5.6175 18 6 C18 7.32 18 8.64 18 10 C17.34 9.67 16.68 9.34 16 9 C16.33 8.34 16.66 7.68 17 7 C16.4534375 7.48597656 15.906875 7.97195312 15.34375 8.47265625 C11.25942533 11.1342745 6.70528303 10.67830332 2 10 C-0.6875 8 -0.6875 8 -2 6 C-2.99 6.495 -2.99 6.495 -4 7 C-4 6.01 -4 5.02 -4 4 C-2.68 4 -1.36 4 0 4 C0 2.68 0 1.36 0 0 Z " fill="#100F5D" transform="translate(334,219)"/>
<path d="M0 0 C0.66 0 1.32 0 2 0 C2.24234375 0.6290625 2.4846875 1.258125 2.734375 1.90625 C4.41526023 6.19897229 6.13908647 10.39879657 8.25 14.5 C10 18 10 18 10 20 C8.68 20 7.36 20 6 20 C6 21.65 6 23.3 6 25 C5.34 25.33 4.68 25.66 4 26 C1.02352945 17.01743708 -0.62596368 9.49378254 0 0 Z " fill="#212168" transform="translate(186,64)"/>
<path d="M0 0 C2.9375 1.1875 2.9375 1.1875 6 3 C6.75 5.5625 6.75 5.5625 7 8 C7.66 8.66 8.32 9.32 9 10 C8.01 10.33 7.02 10.66 6 11 C6 11.66 6 12.32 6 13 C3.03155565 13.35338623 0.84401782 13.5417682 -1.734375 11.88671875 C-3.20348819 10.64496832 -4.60704814 9.32662082 -6 8 C-3.375 2.25 -3.375 2.25 0 0 Z " fill="#0B0B5D" transform="translate(166,527)"/>
<path d="M0 0 C2.8045156 1.4022578 3.0442118 3.06070622 4.1875 5.9375 C4.55230469 6.83339844 4.91710937 7.72929687 5.29296875 8.65234375 C6 11 6 11 5 13 C4.401875 12.835 3.80375 12.67 3.1875 12.5 C0.88655664 11.8885876 0.88655664 11.8885876 -2 12 C-2.66 16.95 -3.32 21.9 -4 27 C-4.33 27 -4.66 27 -5 27 C-5.33 20.07 -5.66 13.14 -6 6 C-4.02 5.34 -2.04 4.68 0 4 C0 2.68 0 1.36 0 0 Z " fill="#2A296F" transform="translate(489,293)"/>
<path d="M0 0 C2.50037734 2.17424117 3.43628586 3.73045798 4 7 C4.66 7 5.32 7 6 7 C9 10.46153846 9 10.46153846 9 13 C9.66 13 10.32 13 11 13 C12.71230248 14.61974559 14.37163262 16.2958946 16 18 C17.3303125 19.299375 17.3303125 19.299375 18.6875 20.625 C21 23 21 23 23 26 C18.40230813 24.53010594 15.1905571 21.88624878 11.625 18.75 C10.76998901 18.01172974 10.76998901 18.01172974 9.89770508 17.25854492 C8.77174745 16.28558025 7.64805329 15.30998882 6.52685547 14.33154297 C4.59233452 12.64448232 2.64058122 10.97801098 0.6875 9.3125 C-0.199375 8.549375 -1.08625 7.78625 -2 7 C-1.34 6.34 -0.68 5.68 0 5 C0.16687448 2.41645782 0.16687448 2.41645782 0 0 Z " fill="#DEDFEF" transform="translate(170,115)"/>
<path d="M0 0 C0.89377528 3.57510111 1.0258444 5.24917563 0.5625 8.75 C0.46066406 9.54921875 0.35882813 10.3484375 0.25390625 11.171875 C0.17011719 11.77515625 0.08632813 12.3784375 0 13 C-6.0223931 10.14522924 -9.48098636 7.29753411 -12 1 C-6.06 0.505 -6.06 0.505 0 0 Z " fill="#E4E5F2" transform="translate(349,238)"/>
<path d="M0 0 C0.66 0.33 1.32 0.66 2 1 C2 1.66 2 2.32 2 3 C0.68 3.33 -0.64 3.66 -2 4 C-1.34 4.33 -0.68 4.66 0 5 C0 5.66 0 6.32 0 7 C-2.31 6.67 -4.62 6.34 -7 6 C-6.67 6.66 -6.34 7.32 -6 8 C-3.45058627 8.31241371 -0.99638487 8.51303421 1.5625 8.625 C2.62887695 8.68300781 2.62887695 8.68300781 3.71679688 8.7421875 C5.47742425 8.83671783 7.23867728 8.91945817 9 9 C6.18396224 11.94403948 4.89624826 12.94926897 0.6875 13.1875 C-2.75981429 13.01221283 -4.93022908 12.48837378 -8 11 C-8.33 8.36 -8.66 5.72 -9 3 C-6.04335481 1.5216774 -3.25770263 1.93967217 0 2 C0 1.34 0 0.68 0 0 Z " fill="#DBDFEC" transform="translate(346,191)"/>
<path d="M0 0 C2.45823172 3.68734758 3.01242616 6.69699971 4 11 C4.33 8.03 4.66 5.06 5 2 C5.66 2 6.32 2 7 2 C8.06775224 3.96466413 9.06553465 5.96855359 10 8 C9.67 8.66 9.34 9.32 9 10 C8.34 10 7.68 10 7 10 C6.814375 11.2065625 6.814375 11.2065625 6.625 12.4375 C6.41875 13.283125 6.2125 14.12875 6 15 C5.01 15.495 5.01 15.495 4 16 C4.33 17.65 4.66 19.3 5 21 C3.078125 20.2890625 3.078125 20.2890625 1 19 C-1.21036708 13.39067223 -1.32477989 6.95429806 -1 1 C-0.67 0.67 -0.34 0.34 0 0 Z " fill="#1F1D60" transform="translate(225,104)"/>
<path d="M0 0 C-0.9600072 3.39472427 -1.65461633 4.76092812 -4.6015625 6.80078125 C-5.59929687 7.29964844 -6.59703125 7.79851562 -7.625 8.3125 C-8.62789063 8.82425781 -9.63078125 9.33601562 -10.6640625 9.86328125 C-11.43492187 10.23839844 -12.20578125 10.61351562 -13 11 C-13 11.99 -13 12.98 -13 14 C-13.99 14 -14.98 14 -16 14 C-16.33 11.69 -16.66 9.38 -17 7 C-16.34 6.67 -15.68 6.34 -15 6 C-15.99 5.34 -16.98 4.68 -18 4 C-17.16855469 3.87882813 -16.33710938 3.75765625 -15.48046875 3.6328125 C-14.39378906 3.46523437 -13.30710937 3.29765625 -12.1875 3.125 C-11.10855469 2.96257812 -10.02960938 2.80015625 -8.91796875 2.6328125 C-5.37142952 1.86368351 -3.67945929 0 0 0 Z " fill="#070653" transform="translate(473,166)"/>
<path d="M0 0 C3 3 6 6 9 9 C8.67 9.66 8.34 10.32 8 11 C6.35 9.68 4.7 8.36 3 7 C0.16977903 10.99560608 1.23789554 14.42737323 2 19 C1.67 18.34 1.34 17.68 1 17 C0.34 16.731875 -0.32 16.46375 -1 16.1875 C-3 15 -3 15 -3.875 12.5625 C-4 10 -4 10 -2 7 C-2.66 6.01 -3.32 5.02 -4 4 C-2.68 2.68 -1.36 1.36 0 0 Z " fill="#181766" transform="translate(206,99)"/>
<path d="M0 0 C6.27 0 12.54 0 19 0 C18.67 1.32 18.34 2.64 18 4 C14.80843552 5.06385483 12.41502524 5.16677982 9.0625 5.1875 C7.50208984 5.20876953 7.50208984 5.20876953 5.91015625 5.23046875 C3.04953387 5.00392282 1.42329849 4.47733619 -1 3 C-0.67 2.01 -0.34 1.02 0 0 Z " fill="#030156" transform="translate(219,235)"/>
<path d="M0 0 C-0.66 1.65 -1.32 3.3 -2 5 C-1.34 5.66 -0.68 6.32 0 7 C-2.60780871 6.77192927 -5.2088289 6.5186505 -7.8125 6.25 C-8.55048828 6.188125 -9.28847656 6.12625 -10.04882812 6.0625 C-15.54974762 5.46511508 -15.54974762 5.46511508 -18.01171875 2.921875 C-18.33785156 2.28765625 -18.66398438 1.6534375 -19 1 C-12.63849395 0.34513908 -6.39628979 -0.12068471 0 0 Z " fill="#151460" transform="translate(216,204)"/>
<path d="M0 0 C4.22480975 0.24851822 6.49978306 0.60852587 9.875 3.25 C12.03753315 6.04857232 12.62718254 7.55143852 13 11 C13.33 11.66 13.66 12.32 14 13 C12.39402675 12.54803755 10.79027492 12.08817673 9.1875 11.625 C8.29417969 11.36976563 7.40085938 11.11453125 6.48046875 10.8515625 C4 10 4 10 1 8 C1.3125 6.0625 1.3125 6.0625 2 4 C2.99 3.67 3.98 3.34 5 3 C2.525 2.01 2.525 2.01 0 1 C0 0.67 0 0.34 0 0 Z " fill="#383779" transform="translate(202,218)"/>
<path d="M0 0 C0.8971875 0.99 0.8971875 0.99 1.8125 2 C6.38420074 4.86851811 10.72130668 4.67655384 16 4 C18.26707495 3.06373118 18.26707495 3.06373118 20 2 C19.30859375 3.890625 19.30859375 3.890625 18 6 C15.72265625 7.046875 15.72265625 7.046875 13.0625 7.75 C12.18722656 7.99234375 11.31195313 8.2346875 10.41015625 8.484375 C8 9 8 9 5 9 C5.99 9.99 6.98 10.98 8 12 C5.6875 11.9375 5.6875 11.9375 3 11 C0.83114896 7.03623776 0 4.53922384 0 0 Z " fill="#E4E6F3" transform="translate(331,224)"/>
<path d="M0 0 C0.87840996 3.09720845 0.99435406 4.90645403 0 8 C0.66 8 1.32 8 2 8 C3.125 9.5 3.125 9.5 4 12 C3.57598348 14.7773082 2.81108065 17.29639783 2 20 C0.68 20.33 -0.64 20.66 -2 21 C-4.13268544 13.36361021 -3.13118693 7.17563672 0 0 Z " fill="#4B4B85" transform="translate(196,360)"/>
<path d="M0 0 C2.65069433 2.47398137 4.71615844 4.57642251 6 8 C6 9.32 6 10.64 6 12 C3.03 11.505 3.03 11.505 0 11 C-0.33 15.62 -0.66 20.24 -1 25 C-1.33 25 -1.66 25 -2 25 C-2 19.39 -2 13.78 -2 8 C-1.34 8 -0.68 8 0 8 C0 6.68 0 5.36 0 4 C-0.66 4 -1.32 4 -2 4 C-2 3.34 -2 2.68 -2 2 C-1.34 2 -0.68 2 0 2 C0 1.34 0 0.68 0 0 Z " fill="#26256A" transform="translate(460,180)"/>
<path d="M0 0 C0.33 0.66 0.66 1.32 1 2 C2.32 2 3.64 2 5 2 C6.71597402 5.24128426 7.09059749 6.60741086 6.25 10.25 C5 13 5 13 3 14 C2.01 13.67 1.02 13.34 0 13 C-0.83796731 8.34462607 -1.0161692 4.62921525 0 0 Z " fill="#07075A" transform="translate(192,82)"/>
<path d="M0 0 C-0.33 0.99 -0.66 1.98 -1 3 C-0.34 3.33 0.32 3.66 1 4 C-4.72040011 4.8320582 -10.22240116 5.12036664 -16 5 C-15.67 3.68 -15.34 2.36 -15 1 C-9.42567486 -0.66251802 -5.6932495 -1.18609365 0 0 Z " fill="#232265" transform="translate(257,262)"/>
<path d="M0 0 C2.17098539 1.72991448 2.93787834 2.59253535 3.36328125 5.3828125 C3.24928712 11.53849544 2.56327917 17.03999815 1 23 C-0.515625 21.9609375 -0.515625 21.9609375 -2 20 C-2.109375 16.6015625 -2.109375 16.6015625 -1.75 12.625 C-1.64171875 11.31789062 -1.5334375 10.01078125 -1.421875 8.6640625 C-1.08281355 5.71925099 -0.64701842 2.88927191 0 0 Z " fill="#29286F" transform="translate(330,186)"/>
<path d="M0 0 C0.99 0 1.98 0 3 0 C3.433125 1.051875 3.86625 2.10375 4.3125 3.1875 C5.32448678 5.57946876 6.36599201 7.58820145 7.75 9.8125 C8.1625 10.534375 8.575 11.25625 9 12 C8.67 12.66 8.34 13.32 8 14 C6.68 13.34 5.36 12.68 4 12 C3.01 13.485 3.01 13.485 2 15 C-0.59227518 10.13948404 -0.18689553 5.34728867 0 0 Z " fill="#201F65" transform="translate(162,86)"/>
<path d="M0 0 C1.58294782 -0.05437607 3.16644256 -0.09296271 4.75 -0.125 C5.63171875 -0.14820313 6.5134375 -0.17140625 7.421875 -0.1953125 C10.1135858 0.00860498 11.69904974 0.63448279 14 2 C13.67 2.99 13.34 3.98 13 5 C12.01 5 11.02 5 10 5 C10 5.66 10 6.32 10 7 C9.34 7 8.68 7 8 7 C7.67 7.66 7.34 8.32 7 9 C5.83037314 7.69013727 4.66437056 6.3770374 3.5 5.0625 C2.8503125 4.33160156 2.200625 3.60070312 1.53125 2.84765625 C0 1 0 1 0 0 Z " fill="#141360" transform="translate(148,152)"/>
<path d="M0 0 C-1.48957832 2.97915664 -3.52738148 3.12293383 -6.625 4.1875 C-11.60014877 5.77931265 -14.84715092 6.16668281 -20 5 C-23.00210134 4.89831592 -25.99716236 4.9387176 -29 5 C-29 4.67 -29 4.34 -29 4 C-25.2931535 3.32488531 -21.58431256 2.66141959 -17.875 2 C-16.30492187 1.71382813 -16.30492187 1.71382813 -14.703125 1.421875 C-13.68476563 1.24140625 -12.66640625 1.0609375 -11.6171875 0.875 C-10.21895752 0.62363281 -10.21895752 0.62363281 -8.79248047 0.3671875 C-5.8315694 -0.0221472 -2.98298238 -0.06158415 0 0 Z " fill="#DFE2F3" transform="translate(279,262)"/>
<path d="M0 0 C0.66 0 1.32 0 2 0 C2 0.99 2 1.98 2 3 C2.66 3 3.32 3 4 3 C3.67 2.01 3.34 1.02 3 0 C3.99 0.33 4.98 0.66 6 1 C7.125 4.3125 7.125 4.3125 8 8 C8.20625 8.804375 8.4125 9.60875 8.625 10.4375 C8.74875 10.953125 8.8725 11.46875 9 12 C6 12 6 12 4.39453125 10.64453125 C0.08322545 5.65193268 0.08322545 5.65193268 -0.375 2.0625 C-0.25125 1.381875 -0.1275 0.70125 0 0 Z " fill="#44437C" transform="translate(357,172)"/>
<path d="M0 0 C0 1.32 0 2.64 0 4 C0.66 4.33 1.32 4.66 2 5 C-0.90600261 6.25664978 -2.79604584 7 -6 7 C-6 7.66 -6 8.32 -6 9 C-7.65 9.33 -9.3 9.66 -11 10 C-10.649375 9.38125 -10.29875 8.7625 -9.9375 8.125 C-9.628125 7.42375 -9.31875 6.7225 -9 6 C-9.33 5.34 -9.66 4.68 -10 4 C-8.71086513 3.32845067 -7.41859796 2.66291141 -6.125 2 C-5.40570313 1.62875 -4.68640625 1.2575 -3.9453125 0.875 C-2 0 -2 0 0 0 Z " fill="#29286F" transform="translate(286,274)"/>
<path d="M0 0 C2.31 0 4.62 0 7 0 C7 0.33 7 0.66 7 1 C5.02 1 3.04 1 1 1 C1.01047363 2.03406982 1.02094727 3.06813965 1.03173828 4.13354492 C1.06802744 7.98197955 1.09093285 11.83039914 1.10986328 15.67895508 C1.11990057 17.34239244 1.13353331 19.00581225 1.15087891 20.66918945 C1.17522749 23.06466005 1.18650588 25.45989668 1.1953125 27.85546875 C1.20563507 28.5952446 1.21595764 29.33502045 1.22659302 30.09721375 C1.22747437 34.18331761 0.82364095 37.3243223 -1 41 C-1.33 41 -1.66 41 -2 41 C-1.93941406 39.88367188 -1.87882813 38.76734375 -1.81640625 37.6171875 C-1.14291453 25.08102675 -0.55429158 12.5419609 0 0 Z " fill="#7676A6" transform="translate(246,391)"/>
<path d="M0 0 C1.59134766 0.00676758 1.59134766 0.00676758 3.21484375 0.01367188 C5.80995598 0.02536157 8.40494709 0.04174724 11 0.0625 C7.51777536 3.54472464 2.74349291 2.9484488 -2 3.0625 C-8.00923746 2.90541258 -14.00502795 2.49118337 -20 2.0625 C-20 1.7325 -20 1.4025 -20 1.0625 C-13.30139078 0.03999595 -6.7684802 -0.05506273 0 0 Z " fill="#5C5D94" transform="translate(242,230.9375)"/>
<path d="M0 0 C0.33 0 0.66 0 1 0 C1.33 11.88 1.66 23.76 2 36 C3.32 34.68 4.64 33.36 6 32 C5.67 33.98 5.34 35.96 5 38 C3.0625 38.5625 3.0625 38.5625 1 39 C0 38 0 38 -0.11352539 34.39819336 C-0.11336625 32.79540144 -0.10767063 31.1926044 -0.09765625 29.58984375 C-0.0962413 28.74780899 -0.09482635 27.90577423 -0.09336853 27.03822327 C-0.08775263 24.33794665 -0.07519748 21.63775172 -0.0625 18.9375 C-0.05748705 17.11132932 -0.05292379 15.28515734 -0.04882812 13.45898438 C-0.03777804 8.97262458 -0.02050279 4.48632616 0 0 Z " fill="#31316A" transform="translate(314,496)"/>
<path d="M0 0 C2.1875 2.5 2.1875 2.5 4 5 C2.73308493 5.67408308 1.46129251 6.33900497 0.1875 7 C-0.52019531 7.37125 -1.22789062 7.7425 -1.95703125 8.125 C-4 9 -4 9 -7 9 C-6.7525 8.1028125 -6.7525 8.1028125 -6.5 7.1875 C-5.8885876 4.88655664 -5.8885876 4.88655664 -6 2 C-3 0 -3 0 0 0 Z " fill="#211F64" transform="translate(303,281)"/>
<path d="M0 0 C2.64 0 5.28 0 8 0 C8 1.65 8 3.3 8 5 C12.95 5.33 17.9 5.66 23 6 C23 6.33 23 6.66 23 7 C20.43721301 7.05420701 17.87558517 7.09377007 15.3125 7.125 C14.59126953 7.14175781 13.87003906 7.15851563 13.12695312 7.17578125 C8.98186285 7.21363596 5.65370902 7.04829142 2 5 C0.6875 2.375 0.6875 2.375 0 0 Z " fill="#2F2D6A" transform="translate(230,252)"/>
<path d="M0 0 C2 2 2 2 2.8671875 4.7578125 C4.12767701 8.36542039 5.82615141 10.83458734 8.125 13.875 C8.84945312 14.84179688 9.57390625 15.80859375 10.3203125 16.8046875 C10.87460938 17.52914062 11.42890625 18.25359375 12 19 C11.67 19.66 11.34 20.32 11 21 C1.32187925 11.74470977 1.32187925 11.74470977 -1 7 C-0.75 3.125 -0.75 3.125 0 0 Z " fill="#CED1E7" transform="translate(190,90)"/>
<path d="M0 0 C0.33 0 0.66 0 1 0 C2.26666667 7.6 2.26666667 7.6 0 12 C-0.45064632 14.58532701 -0.45064632 14.58532701 -0.625 17.25 C-0.73714844 18.58804688 -0.73714844 18.58804688 -0.8515625 19.953125 C-0.90054687 20.62859375 -0.94953125 21.3040625 -1 22 C-0.34 22 0.32 22 1 22 C1 20.68 1 19.36 1 18 C1.66 18.33 2.32 18.66 3 19 C2.67 20.32 2.34 21.64 2 23 C0.68 23 -0.64 23 -2 23 C-3.20568053 18.32798795 -3.09382426 13.78503708 -3 9 C-2.34 9 -1.68 9 -1 9 C-0.67 6.03 -0.34 3.06 0 0 Z " fill="#C1C3DA" transform="translate(332,200)"/>
<path d="M0 0 C1.66666667 1.66666667 3.33333333 3.33333333 5 5 C5.8971875 5.8353125 5.8971875 5.8353125 6.8125 6.6875 C8 8 8 8 8 10 C8.59296875 10.25523438 9.1859375 10.51046875 9.796875 10.7734375 C12.21224538 12.11816498 13.51211706 13.49214367 15.25 15.625 C15.77078125 16.25664063 16.2915625 16.88828125 16.828125 17.5390625 C17.40820312 18.26222656 17.40820312 18.26222656 18 19 C10.47326814 15.57875825 4.68953757 8.84955582 -1 3 C-0.67 2.01 -0.34 1.02 0 0 Z " fill="#A9ADD4" transform="translate(182,110)"/>
<path d="M0 0 C0 0.33 0 0.66 0 1 C-4.95 1.33 -9.9 1.66 -15 2 C-15.33 3.32 -15.66 4.64 -16 6 C-10.72 6.33 -5.44 6.66 0 7 C0 7.33 0 7.66 0 8 C-2.62527189 8.05382106 -5.24944713 8.09358313 -7.875 8.125 C-8.62136719 8.14175781 -9.36773437 8.15851563 -10.13671875 8.17578125 C-12.09194461 8.1933959 -14.04742021 8.10320189 -16 8 C-16.66 7.34 -17.32 6.68 -18 6 C-17.625 3.375 -17.625 3.375 -17 1 C-11.29309366 0.00749455 -5.78591511 -0.10477512 0 0 Z " fill="#606193" transform="translate(242,242)"/>
<path d="M0 0 C3.68172546 4.69041737 5.35473968 8.96942547 5 15 C4.34 14.34 3.68 13.68 3 13 C2.34 13.66 1.68 14.32 1 15 C0 14 0 14 -0.09765625 10.83984375 C-0.08025391 8.90818359 -0.08025391 8.90818359 -0.0625 6.9375 C-0.05347656 5.64714844 -0.04445312 4.35679688 -0.03515625 3.02734375 C-0.02355469 2.02832031 -0.01195312 1.02929688 0 0 Z " fill="#18165A" transform="translate(169,64)"/>
<path d="M0 0 C0.33 0 0.66 0 1 0 C1.19625099 3.95795086 1.38051982 7.91636935 1.5625 11.875 C1.61857422 13.00292969 1.67464844 14.13085938 1.73242188 15.29296875 C1.78076172 16.36933594 1.82910156 17.44570313 1.87890625 18.5546875 C1.94960327 20.04718018 1.94960327 20.04718018 2.02172852 21.56982422 C2 24 2 24 1 26 C0.34 26 -0.32 26 -1 26 C-1.33 27.65 -1.66 29.3 -2 31 C-2.66 31 -3.32 31 -4 31 C-3.79503906 30.43796875 -3.59007812 29.8759375 -3.37890625 29.296875 C-0.30634353 19.71165542 -0.28335212 9.9759488 0 0 Z " fill="#676897" transform="translate(277,528)"/>
<path d="M0 0 C2.07560839 4.15121678 0.74221217 9.55780476 0 14 C-1.0943342 16.92712156 -2.39122943 19.3014171 -4 22 C-4.33 21.01 -4.66 20.02 -5 19 C-5.66 18.67 -6.32 18.34 -7 18 C-5.7260411 15.96166576 -4.38938077 13.96147874 -3 12 C-2.34 12 -1.68 12 -1 12 C-1.01160156 11.21753906 -1.02320313 10.43507813 -1.03515625 9.62890625 C-1.04417969 8.61699219 -1.05320312 7.60507812 -1.0625 6.5625 C-1.07410156 5.55316406 -1.08570313 4.54382813 -1.09765625 3.50390625 C-1 1 -1 1 0 0 Z " fill="#373778" transform="translate(343,354)"/>
<path d="M0 0 C1.43088528 2.86177057 0.59991697 4.93375773 0 8 C-4.41062136 9.0257259 -6.92630576 9.03684712 -11 7 C-10.67 5.68 -10.34 4.36 -10 3 C-6.65626525 3.55728913 -3.96687001 4.35173889 -1 6 C-1.020625 5.195625 -1.04125 4.39125 -1.0625 3.5625 C-1 1 -1 1 0 0 Z " fill="#363475" transform="translate(443,327)"/>
<path d="M0 0 C0.66 0 1.32 0 2 0 C2.50833591 1.24663331 3.00631145 2.49749387 3.5 3.75 C3.7784375 4.44609375 4.056875 5.1421875 4.34375 5.859375 C5 8 5 8 5 12 C3.35 12 1.7 12 0 12 C0 8.04 0 4.08 0 0 Z " fill="#383674" transform="translate(186,64)"/>
<path d="M0 0 C1.32 0.66 2.64 1.32 4 2 C3.8125 3.875 3.8125 3.875 3 6 C0.11280405 7.48261414 -2.83976631 8.29772585 -6 9 C-5.75 7.125 -5.75 7.125 -5 5 C-3.68352881 4.30062468 -2.34977849 3.63270867 -1 3 C-0.67 2.01 -0.34 1.02 0 0 Z " fill="#020257" transform="translate(344,501)"/>
<path d="M0 0 C0.66 0.33 1.32 0.66 2 1 C2 1.66 2 2.32 2 3 C0.68 3.33 -0.64 3.66 -2 4 C-1.34 4.33 -0.68 4.66 0 5 C0 5.66 0 6.32 0 7 C-2.31 6.67 -4.62 6.34 -7 6 C-7.33 6.66 -7.66 7.32 -8 8 C-8.33 6.35 -8.66 4.7 -9 3 C-6.04335481 1.5216774 -3.25770263 1.93967217 0 2 C0 1.34 0 0.68 0 0 Z " fill="#BABBD6" transform="translate(346,191)"/>
<path d="M0 0 C-1.36911804 3.1489715 -2.8752136 5.0478487 -5.5 7.25 C-6.41265625 8.03117187 -6.41265625 8.03117187 -7.34375 8.828125 C-9 10 -9 10 -11 10 C-11 7.8125 -11 7.8125 -10 5 C-7.11961214 2.65770658 -3.81180628 0 0 0 Z " fill="#E3E5F3" transform="translate(314,282)"/>
<path d="M0 0 C0.5775 0.2475 1.155 0.495 1.75 0.75 C1.42 1.36875 1.09 1.9875 0.75 2.625 C-0.39193235 4.66018344 -0.39193235 4.66018344 -0.25 6.75 C-2.89 7.08 -5.53 7.41 -8.25 7.75 C-6.64613593 4.0076505 -4.56199942 -0.50688882 0 0 Z " fill="#1F1F64" transform="translate(291.25,280.25)"/>
<path d="M0 0 C0 0.66 0 1.32 0 2 C-6.40766041 3.83292414 -11.41276707 4.04559253 -18 3 C-18 2.67 -18 2.34 -18 2 C-16.12612523 1.6603981 -14.25083303 1.32861309 -12.375 1 C-11.33085937 0.814375 -10.28671875 0.62875 -9.2109375 0.4375 C-6.09425135 0.01284203 -3.14069188 -0.07545206 0 0 Z " fill="#8083B6" transform="translate(265,246)"/>
<path d="M0 0 C0.515625 0.309375 1.03125 0.61875 1.5625 0.9375 C4.66665423 2.29059287 7.65115007 2.61359424 11 3 C11 3.33 11 3.66 11 4 C8.69 4 6.38 4 4 4 C4 4.66 4 5.32 4 6 C3.01 6 2.02 6 1 6 C0.67 6.66 0.34 7.32 0 8 C-0.66 7.34 -1.32 6.68 -2 6 C-2.99 6.495 -2.99 6.495 -4 7 C-4 6.01 -4 5.02 -4 4 C-2.68 4 -1.36 4 0 4 C0 2.68 0 1.36 0 0 Z " fill="#3B3B77" transform="translate(334,219)"/>
<path d="M0 0 C1.65 0 3.3 0 5 0 C5.33 1.65 5.66 3.3 6 5 C8.31 5 10.62 5 13 5 C13 5.33 13 5.66 13 6 C8.05 6 3.1 6 -2 6 C-2.33 5.01 -2.66 4.02 -3 3 C-0.69 3.33 1.62 3.66 4 4 C4 3.34 4 2.68 4 2 C2.68 1.34 1.36 0.68 0 0 Z " fill="#19175C" transform="translate(342,194)"/>
<path d="M0 0 C0.74958984 0.00902344 1.49917969 0.01804688 2.27148438 0.02734375 C4.11862654 0.05087422 5.96560412 0.08674439 7.8125 0.125 C7.8125 0.455 7.8125 0.785 7.8125 1.125 C6.88566406 1.17398438 5.95882812 1.22296875 5.00390625 1.2734375 C3.80636719 1.34820312 2.60882813 1.42296875 1.375 1.5 C-0.41744141 1.60441406 -0.41744141 1.60441406 -2.24609375 1.7109375 C-3.21675781 1.84757813 -4.18742188 1.98421875 -5.1875 2.125 C-5.5175 2.785 -5.8475 3.445 -6.1875 4.125 C-4.8675 4.785 -3.5475 5.445 -2.1875 6.125 C-7.72596154 5.50961538 -7.72596154 5.50961538 -10.0625 3.5625 C-10.43375 3.088125 -10.805 2.61375 -11.1875 2.125 C-7.39586973 -0.40275351 -4.37875969 -0.09943035 0 0 Z " fill="#373670" transform="translate(224.1875,233.875)"/>
<path d="M0 0 C4.58698309 0.1248725 8.56792308 0.79220001 12.125 3.875 C12.49625 4.32875 12.8675 4.7825 13.25 5.25 C12.57582031 5.10691406 11.90164062 4.96382812 11.20703125 4.81640625 C7.79547658 4.16293805 4.37735618 3.66972283 0.9375 3.1875 C-0.94388672 2.92259766 -0.94388672 2.92259766 -2.86328125 2.65234375 C-3.81589844 2.51957031 -4.76851562 2.38679687 -5.75 2.25 C-3.75 0.25 -3.75 0.25 0 0 Z " fill="#9FA1CE" transform="translate(208.75,209.75)"/>
<path d="M0 0 C0 0.33 0 0.66 0 1 C-4.29 1.66 -8.58 2.32 -13 3 C-13 1.68 -13 0.36 -13 -1 C-11.58566794 -1.2236337 -10.16832382 -1.42826476 -8.75 -1.625 C-7.56664062 -1.79902344 -7.56664062 -1.79902344 -6.359375 -1.9765625 C-3.67847541 -2.00319395 -2.27305911 -1.36592084 0 0 Z " fill="#0D0C5A" transform="translate(279,261)"/>
<path d="M0 0 C4.39158329 1.4638611 4.87947433 3.97831338 7 8 C6.01 8.33 5.02 8.66 4 9 C3.34 10.32 2.68 11.64 2 13 C1.34 8.71 0.68 4.42 0 0 Z " fill="#4B4A7E" transform="translate(156,109)"/>
<path d="M0 0 C0.66 0.33 1.32 0.66 2 1 C1.01 2.485 1.01 2.485 0 4 C0.66 4 1.32 4 2 4 C2 5.32 2 6.64 2 8 C1.34 8 0.68 8 0 8 C-0.33 7.34 -0.66 6.68 -1 6 C-3.64 6 -6.28 6 -9 6 C-9 5.34 -9 4.68 -9 4 C-7.88625 3.71125 -6.7725 3.4225 -5.625 3.125 C-1.99708908 2.30758671 -1.99708908 2.30758671 0 0 Z " fill="#2A2A6D" transform="translate(446,160)"/>
<path d="M0 0 C3.76687864 1.88343932 4.79421646 2.69132469 7 6 C6.67 6.66 6.34 7.32 6 8 C5.01 7.34 4.02 6.68 3 6 C2.67 7.32 2.34 8.64 2 10 C1.01 9.67 0.02 9.34 -1 9 C-0.67 6.03 -0.34 3.06 0 0 Z " fill="#3E3F7B" transform="translate(297,160)"/>
<path d="M0 0 C1.32 0.33 2.64 0.66 4 1 C3.195625 1.61875 2.39125 2.2375 1.5625 2.875 C-1.03874519 4.74164041 -1.03874519 4.74164041 -2 7 C-0.35 7.33 1.3 7.66 3 8 C3 8.33 3 8.66 3 9 C0.36 9 -2.28 9 -5 9 C-5.33 8.01 -5.66 7.02 -6 6 C-4.06745228 3.9754262 -2.36841312 2.57894208 0 1 C0 0.67 0 0.34 0 0 Z " fill="#44437E" transform="translate(269,272)"/>
<path d="M0 0 C0 0.66 0 1.32 0 2 C-1.95890881 3.39300182 -3.9639118 4.72245446 -6 6 C-6.99 6.66 -7.98 7.32 -9 8 C-9 7.01 -9 6.02 -9 5 C-10.32 4.67 -11.64 4.34 -13 4 C-11.39850114 3.32694982 -9.79368971 2.66177773 -8.1875 2 C-7.29417969 1.62875 -6.40085937 1.2575 -5.48046875 0.875 C-3 0 -3 0 0 0 Z " fill="#AEAED1" transform="translate(293,277)"/>
<path d="M0 0 C-0.33 0.99 -0.66 1.98 -1 3 C-0.34 3.33 0.32 3.66 1 4 C-3.09998139 4.18636279 -5.39234195 3.80382903 -9 2 C-12.16695956 1.83275263 -12.16695956 1.83275263 -15 2 C-9.82976131 -1.44682579 -6.02634681 -1.06347297 0 0 Z " fill="#14145F" transform="translate(257,262)"/>
<path d="M0 0 C1.051875 0.7115625 1.051875 0.7115625 2.125 1.4375 C5.16081337 3.08739857 7.59168786 3.60368464 11 4 C11 4.33 11 4.66 11 5 C9.02 5.33 7.04 5.66 5 6 C5 6.33 5 6.66 5 7 C2.69 6.67 0.38 6.34 -2 6 C-1.34 5.67 -0.68 5.34 0 5 C0 3.35 0 1.7 0 0 Z " fill="#40407E" transform="translate(365,168)"/>
<path d="M0 0 C1.32 0.66 2.64 1.32 4 2 C3.67 2.66 3.34 3.32 3 4 C-2.61 4 -8.22 4 -14 4 C-12 2 -12 2 -9.1796875 1.8046875 C-8.08914063 1.82789063 -6.99859375 1.85109375 -5.875 1.875 C-4.77929688 1.89304688 -3.68359375 1.91109375 -2.5546875 1.9296875 C-1.71164062 1.95289063 -0.86859375 1.97609375 0 2 C0 1.34 0 0.68 0 0 Z " fill="#7C7AA7" transform="translate(416,156)"/>
<path d="M0 0 C0.66 0 1.32 0 2 0 C3.06775224 1.96466413 4.06553465 3.96855359 5 6 C4.67 6.66 4.34 7.32 4 8 C3.34 8 2.68 8 2 8 C1.67 9.65 1.34 11.3 1 13 C0.34 12.67 -0.32 12.34 -1 12 C-0.67 8.04 -0.34 4.08 0 0 Z " fill="#535088" transform="translate(230,106)"/>
<path d="M0 0 C3 1 3 1 4 2.75 C4 5 4 5 1.5625 7.75 C0.2940625 8.86375 0.2940625 8.86375 -1 10 C-1.5534764 7.92446352 -2 6.15634036 -2 4 C-1.34 3.34 -0.68 2.68 0 2 C0 1.34 0 0.68 0 0 Z " fill="#030359" transform="translate(318,420)"/>
<path d="M0 0 C0.66 1.32 1.32 2.64 2 4 C0.35 4.33 -1.3 4.66 -3 5 C-3.33 7.31 -3.66 9.62 -4 12 C-4.99 12.33 -5.98 12.66 -7 13 C-6.36664937 7.61651963 -3.79089107 3.79089107 0 0 Z " fill="#2C2B6D" transform="translate(266,312)"/>
<path d="M0 0 C2.5 2.25 2.5 2.25 5 5 C5 6.32 5 7.64 5 9 C6.4166747 10.7511573 6.4166747 10.7511573 8 12 C5.6875 11.9375 5.6875 11.9375 3 11 C0.83114896 7.03623776 0 4.53922384 0 0 Z " fill="#B9BADB" transform="translate(331,224)"/>
<path d="M0 0 C0.99 0 1.98 0 3 0 C3.33 1.98 3.66 3.96 4 6 C3.34 6 2.68 6 2 6 C2 8.64 2 11.28 2 14 C0.09391902 10.78817851 -0.22266247 8.46117397 -0.125 4.75 C-0.09792969 3.41195312 -0.09792969 3.41195312 -0.0703125 2.046875 C-0.04710937 1.37140625 -0.02390625 0.6959375 0 0 Z " fill="#5D5C8D" transform="translate(162,86)"/>
<path d="M0 0 C0.33 0 0.66 0 1 0 C1 2.31 1 4.62 1 7 C1.66 7 2.32 7 3 7 C2.67 7.99 2.34 8.98 2 10 C-0.4375 9.25 -0.4375 9.25 -3 8 C-3.8125 5.875 -3.8125 5.875 -4 4 C-3.01 3.67 -2.02 3.34 -1 3 C-0.67 2.01 -0.34 1.02 0 0 Z " fill="#242471" transform="translate(199,362)"/>
<path d="M0 0 C0 3.35279018 -0.35469584 5.08332445 -2 8 C-5.125 9.3125 -5.125 9.3125 -8 10 C-6.5682479 4.98886765 -4.01554307 3.05530451 0 0 Z " fill="#333274" transform="translate(225,502)"/>
<path d="M0 0 C0.33 0.99 0.66 1.98 1 3 C2.65 3 4.3 3 6 3 C5.67 3.66 5.34 4.32 5 5 C-3.19256018 5.4726477 -3.19256018 5.4726477 -6.5625 3.5 C-7.036875 3.005 -7.51125 2.51 -8 2 C-5.36 2 -2.72 2 0 2 C0 1.34 0 0.68 0 0 Z " fill="#474782" transform="translate(264,474)"/>
<path d="M0 0 C0.33 0 0.66 0 1 0 C1.33 2.31 1.66 4.62 2 7 C2.99 6.67 3.98 6.34 5 6 C5.33 6.99 5.66 7.98 6 9 C4 12 4 12 1 13 C0.1276588 10.00519083 -0.10829766 7.36424089 -0.0625 4.25 C-0.05347656 3.45078125 -0.04445312 2.6515625 -0.03515625 1.828125 C-0.02355469 1.22484375 -0.01195312 0.6215625 0 0 Z " fill="#8E8FB0" transform="translate(193,368)"/>
<path d="M0 0 C0.66 0.33 1.32 0.66 2 1 C1.67 3.97 1.34 6.94 1 10 C0.01 10 -0.98 10 -2 10 C-1.67 8.02 -1.34 6.04 -1 4 C-1.66 3.67 -2.32 3.34 -3 3 C-2.01 2.01 -1.02 1.02 0 0 Z " fill="#020255" transform="translate(277,510)"/>
<path d="M0 0 C0.33 0.66 0.66 1.32 1 2 C0.34 2 -0.32 2 -1 2 C-1.20496094 2.62648438 -1.40992188 3.25296875 -1.62109375 3.8984375 C-1.89050781 4.71570313 -2.15992188 5.53296875 -2.4375 6.375 C-2.70433594 7.18710937 -2.97117188 7.99921875 -3.24609375 8.8359375 C-4 11 -4 11 -5 13 C-5.66 13 -6.32 13 -7 13 C-6.52431912 8.00535076 -5.04839109 4.97214597 -2 1 C-1.34 0.67 -0.68 0.34 0 0 Z " fill="#393875" transform="translate(156,501)"/>
<path d="M0 0 C0.66 0.66 1.32 1.32 2 2 C0.35 2.33 -1.3 2.66 -3 3 C-3 2.67 -3 2.34 -3 2 C-7.62 2 -12.24 2 -17 2 C-17 1.67 -17 1.34 -17 1 C-15.10630916 0.63455089 -13.20991218 0.28310825 -11.3125 -0.0625 C-10.25675781 -0.25972656 -9.20101563 -0.45695312 -8.11328125 -0.66015625 C-5.04741422 -0.9948243 -2.93504681 -0.89953274 0 0 Z " fill="#D1D1EA" transform="translate(267,265)"/>
<path d="M0 0 C2.31 0.66 4.62 1.32 7 2 C7.33 1.34 7.66 0.68 8 0 C9.65 1.65 11.3 3.3 13 5 C12.67 5.66 12.34 6.32 12 7 C11.01 6.67 10.02 6.34 9 6 C8.67 5.34 8.34 4.68 8 4 C6.5459375 3.7834375 6.5459375 3.7834375 5.0625 3.5625 C4.051875 3.376875 3.04125 3.19125 2 3 C1.34 2.01 0.68 1.02 0 0 Z " fill="#4F4F84" transform="translate(250,132)"/>
<path d="M0 0 C0.66 0 1.32 0 2 0 C2.66 0.66 3.32 1.32 4 2 C5.32392972 3.01241685 6.65599167 4.01439389 8 5 C7.01 6.485 7.01 6.485 6 8 C2.83884224 6.63016497 2.0072908 6.0109362 0 3 C0 2.01 0 1.02 0 0 Z " fill="#040457" transform="translate(197,101)"/>
<path d="M0 0 C0 4.28535967 -2.2516278 5.84942699 -5 9 C-5.33 9.66 -5.66 10.32 -6 11 C-6.66 11 -7.32 11 -8 11 C-8.33 11.99 -8.66 12.98 -9 14 C-9 10.01669933 -8.8916326 7.97646023 -6.15234375 4.9765625 C-4.14808197 3.24448442 -2.11951333 1.58842798 0 0 Z " fill="#D6D7E9" transform="translate(321,394)"/>
<path d="M0 0 C0.33 1.32 0.66 2.64 1 4 C-1.25 6.5625 -1.25 6.5625 -4 9 C-4.598125 9.598125 -5.19625 10.19625 -5.8125 10.8125 C-6.204375 11.204375 -6.59625 11.59625 -7 12 C-7.66 11.67 -8.32 11.34 -9 11 C-6.03 7.37 -3.06 3.74 0 0 Z " fill="#42417E" transform="translate(329,516)"/>
<path d="M0 0 C2.64 0 5.28 0 8 0 C7.67 1.65 7.34 3.3 7 5 C4.0625 4.1875 4.0625 4.1875 1 3 C0.67 2.01 0.34 1.02 0 0 Z " fill="#18165F" transform="translate(319,436)"/>
<path d="M0 0 C0.66 0 1.32 0 2 0 C0.34908222 4.29238623 -2.73754566 6.8793915 -6 10 C-6.66 9.67 -7.32 9.34 -8 9 C-7.04882866 7.8274869 -6.08882991 6.66212985 -5.125 5.5 C-4.32449219 4.52546875 -4.32449219 4.52546875 -3.5078125 3.53125 C-2.76144531 2.77328125 -2.76144531 2.77328125 -2 2 C-1.34 2 -0.68 2 0 2 C0 1.34 0 0.68 0 0 Z " fill="#C5C5DF" transform="translate(248,338)"/>
<path d="M0 0 C0.66 0.33 1.32 0.66 2 1 C-2.625 4 -2.625 4 -6 4 C-6.66 5.32 -7.32 6.64 -8 8 C-8.99 7.34 -9.98 6.68 -11 6 C-9.73168307 5.18357746 -8.46024069 4.37200895 -7.1875 3.5625 C-6.47980469 3.11003906 -5.77210938 2.65757812 -5.04296875 2.19140625 C-3 1 -3 1 0 0 Z " fill="#363574" transform="translate(293,295)"/>
<path d="M0 0 C1.96592531 0.23324538 3.93158237 0.46946831 5.89453125 0.7265625 C7.55221598 0.94184623 9.21318241 1.13186765 10.875 1.3125 C13 2 13 2 14.3125 4.0625 C14.6528125 5.0215625 14.6528125 5.0215625 15 6 C9.86626838 4.60961435 4.96260257 2.91539047 0 1 C0 0.67 0 0.34 0 0 Z " fill="#2F2E73" transform="translate(428,214)"/>
<path d="M0 0 C0.66 0 1.32 0 2 0 C1.02967359 7.115727 1.02967359 7.115727 -1 10 C-2.9375 10.875 -2.9375 10.875 -5 11 C-5.99 10.34 -6.98 9.68 -8 9 C-6.865625 8.443125 -5.73125 7.88625 -4.5625 7.3125 C-1.44531169 5.5777124 -1.44531169 5.5777124 -0.0625 2.25 C-0.041875 1.5075 -0.02125 0.765 0 0 Z " fill="#D2D2E5" transform="translate(472,165)"/>
<path d="M0 0 C3.96 0.33 7.92 0.66 12 1 C12 1.33 12 1.66 12 2 C9.69 2.33 7.38 2.66 5 3 C4.67 3.99 4.34 4.98 4 6 C2.68 5.34 1.36 4.68 0 4 C0 2.68 0 1.36 0 0 Z " fill="#3A3972" transform="translate(377,166)"/>
<path d="M0 0 C0.721875 0.474375 1.44375 0.94875 2.1875 1.4375 C4.92404653 2.95780363 6.96329344 3.44060669 10 4 C10.99 4.66 11.98 5.32 13 6 C13 6.66 13 7.32 13 8 C12.484375 7.71125 11.96875 7.4225 11.4375 7.125 C8.87062743 5.84453343 8.87062743 5.84453343 5.375 5.125 C2 4 2 4 0.5625 1.875 C0.376875 1.25625 0.19125 0.6375 0 0 Z " fill="#2F2F75" transform="translate(174,151)"/>
<path d="M0 0 C0.33 0 0.66 0 1 0 C1.39058477 11.17506436 1.39058477 11.17506436 -1 15 C-3.125 16.3125 -3.125 16.3125 -5 17 C-5.33 16.34 -5.66 15.68 -6 15 C-5.36578125 14.80664062 -4.7315625 14.61328125 -4.078125 14.4140625 C-1.67611298 13.1088608 -1.67611298 13.1088608 -1.171875 9.9609375 C-1.03265625 8.77757812 -0.8934375 7.59421875 -0.75 6.375 C-0.60046875 5.18648437 -0.4509375 3.99796875 -0.296875 2.7734375 C-0.19890625 1.85820313 -0.1009375 0.94296875 0 0 Z " fill="#403E7E" transform="translate(188,554)"/>
<path d="M0 0 C2.31 0.33 4.62 0.66 7 1 C7.66 3.31 8.32 5.62 9 8 C5.56247993 6.4722133 2.81046312 4.49818944 0 2 C0 1.34 0 0.68 0 0 Z " fill="#4A4B83" transform="translate(152,528)"/>
<path d="M0 0 C0.66 0 1.32 0 2 0 C1.60196439 2.88575819 1.20990931 3.82189513 -1.0625 5.75 C-1.701875 6.1625 -2.34125 6.575 -3 7 C-3.66 6.67 -4.32 6.34 -5 6 C-3.38405168 3.95880212 -1.7143618 1.95927063 0 0 Z M-7 7 C-6.34 7.33 -5.68 7.66 -5 8 C-5.99 9.485 -5.99 9.485 -7 11 C-7.33 10.34 -7.66 9.68 -8 9 C-7.67 8.34 -7.34 7.68 -7 7 Z " fill="#030255" transform="translate(327,521)"/>
<path d="M0 0 C0.33 0.66 0.66 1.32 1 2 C-0.47169811 5.73584906 -0.47169811 5.73584906 -3 7 C-3.99 8.485 -3.99 8.485 -5 10 C-5.99 9.67 -6.98 9.34 -8 9 C-5.36 6.03 -2.72 3.06 0 0 Z " fill="#2E2D70" transform="translate(347,496)"/>
<path d="M0 0 C1.10844919 3.32534757 0.84454356 5.62182575 0 9 C-2 7.25 -2 7.25 -4 5 C-4 3.68 -4 2.36 -4 1 C-2 0 -2 0 0 0 Z " fill="#131258" transform="translate(292,399)"/>
<path d="M0 0 C0.33 0 0.66 0 1 0 C0.61271765 5.71241466 0.12989477 8.73688282 -4 13 C-4.33 12.01 -4.66 11.02 -5 10 C-4.34 9.01 -3.68 8.02 -3 7 C-2.43182698 5.78285872 -1.88996248 4.55309144 -1.375 3.3125 C-0.92125 2.219375 -0.4675 1.12625 0 0 Z " fill="#C9CCEA" transform="translate(200,371)"/>
<path d="M0 0 C-0.639375 0.103125 -1.27875 0.20625 -1.9375 0.3125 C-2.9584375 0.6528125 -2.9584375 0.6528125 -4 1 C-4.33 1.99 -4.66 2.98 -5 4 C-5.66 4 -6.32 4 -7 4 C-7.33 4.66 -7.66 5.32 -8 6 C-8.33 5.01 -8.66 4.02 -9 3 C-6.27596221 -1.08605669 -4.4643819 -1.38549783 0 0 Z " fill="#C3C5DE" transform="translate(270,274)"/>
<path d="M0 0 C-2.39509338 2.89932357 -4.31245243 3.50168276 -8 4 C-8.66 3.01 -9.32 2.02 -10 1 C-8.71073008 0.63720544 -7.41846728 0.28503302 -6.125 -0.0625 C-5.40570313 -0.25972656 -4.68640625 -0.45695313 -3.9453125 -0.66015625 C-2 -1 -2 -1 0 0 Z " fill="#242465" transform="translate(180,175)"/>
<path d="M0 0 C2.91227269 3.28804981 4.49701212 5.59885603 5 10 C4.34 10 3.68 10 3 10 C0.8125 7.8125 0.8125 7.8125 -1 5 C-0.75 2.1875 -0.75 2.1875 0 0 Z " fill="#D2D4E7" transform="translate(177,102)"/>
<path d="M0 0 C0.33 0.66 0.66 1.32 1 2 C0.09674384 3.32176485 -0.82317903 4.63215066 -1.75 5.9375 C-2.26046875 6.66839844 -2.7709375 7.39929688 -3.296875 8.15234375 C-5.19177915 10.20805399 -6.27425729 10.62669176 -9 11 C-8.60167969 10.54109375 -8.20335937 10.0821875 -7.79296875 9.609375 C-5.08857938 6.47728415 -2.42008229 3.36122541 0 0 Z " fill="#CBCDE4" transform="translate(333,381)"/>
<path d="M0 0 C0.66 0.99 1.32 1.98 2 3 C-1.63 3 -5.26 3 -9 3 C-9 2.34 -9 1.68 -9 1 C-5.92859432 0.08995387 -3.20100846 -0.33694826 0 0 Z " fill="#060550" transform="translate(262,270)"/>
<path d="M0 0 C3.3 0 6.6 0 10 0 C8 4 8 4 5.875 4.75 C4.946875 4.87375 4.946875 4.87375 4 5 C4 4.34 4 3.68 4 3 C2.68 2.34 1.36 1.68 0 1 C0 0.67 0 0.34 0 0 Z " fill="#2D2D6D" transform="translate(340,207)"/>
<path d="M0 0 C3.465 1.485 3.465 1.485 7 3 C7 3.33 7 3.66 7 4 C5.95199219 4.09087891 5.95199219 4.09087891 4.8828125 4.18359375 C3.97273437 4.26738281 3.06265625 4.35117188 2.125 4.4375 C1.22007812 4.51871094 0.31515625 4.59992188 -0.6171875 4.68359375 C-3.01110861 4.86989285 -3.01110861 4.86989285 -5 6 C-5 5.01 -5 4.02 -5 3 C-3.35 3 -1.7 3 0 3 C0 2.01 0 1.02 0 0 Z " fill="#C7CBE1" transform="translate(198,207)"/>
<path d="M0 0 C4.95 0.99 4.95 0.99 10 2 C10 2.33 10 2.66 10 3 C8.02 3 6.04 3 4 3 C3.67 4.32 3.34 5.64 3 7 C0 3.375 0 3.375 0 0 Z " fill="#262465" transform="translate(345,187)"/>
<path d="M0 0 C1.98 1.65 3.96 3.3 6 5 C4.125 5.625 4.125 5.625 2 6 C1.34 5.34 0.68 4.68 0 4 C0 2.68 0 1.36 0 0 Z M0 6 C0.66 6 1.32 6 2 6 C2 6.66 2 7.32 2 8 C1.34 8 0.68 8 0 8 C0 7.34 0 6.68 0 6 Z " fill="#171560" transform="translate(228,562)"/>
<path d="M0 0 C0.33 0.66 0.66 1.32 1 2 C1.66 2 2.32 2 3 2 C5.125 9.625 5.125 9.625 4 13 C3.32404685 11.58774074 2.65959941 10.16997095 2 8.75 C1.62875 7.96109375 1.2575 7.1721875 0.875 6.359375 C0 4 0 4 0 0 Z " fill="#9999BE" transform="translate(470,507)"/>
<path d="M0 0 C0.8971875 0.309375 0.8971875 0.309375 1.8125 0.625 C-3.33035714 5.05357143 -3.33035714 5.05357143 -7.1875 5.625 C-5.69046729 2.17030914 -4.27938051 -0.73360809 0 0 Z " fill="#BCBED6" transform="translate(168.1875,505.375)"/>
<path d="M0 0 C0.66 0 1.32 0 2 0 C2 0.66 2 1.32 2 2 C3.65 2.33 5.3 2.66 7 3 C7.33 2.34 7.66 1.68 8 1 C8 1.99 8 2.98 8 4 C7.34 4.66 6.68 5.32 6 6 C5.67 6.66 5.34 7.32 5 8 C4.16382818 6.8562364 3.33113541 5.70992861 2.5 4.5625 C2.0359375 3.92441406 1.571875 3.28632813 1.09375 2.62890625 C0 1 0 1 0 0 Z " fill="#13125B" transform="translate(175,400)"/>
<path d="M0 0 C0.625 1.8125 0.625 1.8125 1 4 C-1 7 -1 7 -4.125 7.6875 C-5.07375 7.790625 -6.0225 7.89375 -7 8 C-6.02133662 6.85373678 -5.04205413 5.70800212 -4.0625 4.5625 C-3.51722656 3.92441406 -2.97195313 3.28632813 -2.41015625 2.62890625 C-1.63204305 1.73008851 -0.84063472 0.84063472 0 0 Z " fill="#2E2E6D" transform="translate(260,384)"/>
<path d="M0 0 C2.97 0 5.94 0 9 0 C9 0.99 9 1.98 9 3 C6.36 3 3.72 3 1 3 C0.67 2.01 0.34 1.02 0 0 Z " fill="#222263" transform="translate(194,211)"/>
<path d="M0 0 C0.99 0.33 1.98 0.66 3 1 C3.33 2.98 3.66 4.96 4 7 C3.01 7 2.02 7 1 7 C-1.1875 4.5 -1.1875 4.5 -3 2 C-1.68 2.33 -0.36 2.66 1 3 C0.67 2.01 0.34 1.02 0 0 Z " fill="#28286B" transform="translate(362,177)"/>
<path d="M0 0 C0.66 0 1.32 0 2 0 C1.67 1.98 1.34 3.96 1 6 C0.34 6 -0.32 6 -1 6 C-1.33 5.34 -1.66 4.68 -2 4 C-3.98 4.99 -3.98 4.99 -6 6 C-4 4 -2 2 0 0 Z " fill="#46457A" transform="translate(454,154)"/>
<path d="M0 0 C0.99 0.99 1.98 1.98 3 3 C2.67 3.66 2.34 4.32 2 5 C1.01 5 0.02 5 -1 5 C-1.33 5.66 -1.66 6.32 -2 7 C-2.6875 5.1875 -2.6875 5.1875 -3 3 C-1.5625 1.25 -1.5625 1.25 0 0 Z " fill="#100F5F" transform="translate(267,144)"/>
<path d="M0 0 C1.12894876 0.93274109 2.25300876 1.87140122 3.375 2.8125 C4.00148437 3.33457031 4.62796875 3.85664062 5.2734375 4.39453125 C7 6 7 6 9 9 C5.05860922 7.33248852 2.2107188 4.77289351 -1 2 C-0.67 1.34 -0.34 0.68 0 0 Z " fill="#6061A4" transform="translate(191,120)"/>
<path d="M0 0 C2.60608273 2.5162178 4.89381685 5.05134359 7 8 C6.67 8.66 6.34 9.32 6 10 C3.36 7.36 0.72 4.72 -2 2 C-1.34 1.34 -0.68 0.68 0 0 Z " fill="#7476B1" transform="translate(195,101)"/>
<path d="M0 0 C0.66 0.33 1.32 0.66 2 1 C-0.75 4.875 -0.75 4.875 -3 6 C-3 5.34 -3 4.68 -3 4 C-4.98 4.33 -6.96 4.66 -9 5 C-6.32239719 2.32239719 -3.52050129 1.32018799 0 0 Z " fill="#494885" transform="translate(265,566)"/>
<path d="M0 0 C5.07865169 1.26966292 5.07865169 1.26966292 7 4 C6.67 5.32 6.34 6.64 6 8 C4.02 5.36 2.04 2.72 0 0 Z " fill="#2A2A6C" transform="translate(216,563)"/>
<path d="M0 0 C0.99 1.32 1.98 2.64 3 4 C1.71937515 5.7074998 0.38232443 7.37373596 -1 9 C-1.66 9 -2.32 9 -3 9 C-2.01 6.03 -1.02 3.06 0 0 Z " fill="#31306F" transform="translate(432,555)"/>
<path d="M0 0 C1.32 0 2.64 0 4 0 C2.70700306 2.88437779 1.34058637 4.87219421 -1 7 C-1.625 5.1875 -1.625 5.1875 -2 3 C-1.34 2.01 -0.68 1.02 0 0 Z " fill="#100F5B" transform="translate(262,403)"/>
<path d="M0 0 C1.98 0.99 1.98 0.99 4 2 C3.814375 2.598125 3.62875 3.19625 3.4375 3.8125 C2.77906313 6.16408762 2.77906313 6.16408762 4 9 C2.68 8.34 1.36 7.68 0 7 C0 4.69 0 2.38 0 0 Z " fill="#2D2C71" transform="translate(226,116)"/>
<path d="M0 0 C0.99 0.495 0.99 0.495 2 1 C2 1.99 2 2.98 2 4 C2.66 4 3.32 4 4 4 C3.67 5.98 3.34 7.96 3 10 C1.11608215 6.73454239 0.50712033 3.71888239 0 0 Z " fill="#1A185F" transform="translate(467,524)"/>
<path d="M0 0 C1.98 0.495 1.98 0.495 4 1 C3.01 3.97 2.02 6.94 1 10 C-1.56687367 6.1496895 -0.83288724 4.41430237 0 0 Z " fill="#0A0954" transform="translate(235,347)"/>
<path d="M0 0 C-2.43387753 1.21693876 -4.41838846 1.31959896 -7.125 1.5625 C-8.03507812 1.64628906 -8.94515625 1.73007813 -9.8828125 1.81640625 C-10.93082031 1.90728516 -10.93082031 1.90728516 -12 2 C-10 -1 -10 -1 -7.6875 -1.8125 C-4.5778434 -2.02945279 -2.7770808 -1.34886782 0 0 Z " fill="#111160" transform="translate(276,254)"/>
<path d="M0 0 C2.62386487 3.06117568 3 3.73173127 3 8 C0.03 7.505 0.03 7.505 -3 7 C-1.68 6.67 -0.36 6.34 1 6 C0.67 4.02 0.34 2.04 0 0 Z " fill="#434278" transform="translate(463,184)"/>
<path d="M0 0 C0.268125 0.61875 0.53625 1.2375 0.8125 1.875 C1.95556848 4.2995233 1.95556848 4.2995233 5 6 C1.37 6 -2.26 6 -6 6 C-4.68 5.34 -3.36 4.68 -2 4 C-0.73195434 1.9664052 -0.73195434 1.9664052 0 0 Z " fill="#D8DCEF" transform="translate(376,166)"/>
<path d="M0 0 C1.62490954 -0.02698189 3.24994633 -0.04638757 4.875 -0.0625 C5.77992188 -0.07410156 6.68484375 -0.08570313 7.6171875 -0.09765625 C10 0 10 0 12 1 C12 1.66 12 2.32 12 3 C10.37581255 3.08090971 8.75048255 3.13914995 7.125 3.1875 C5.76761719 3.23970703 5.76761719 3.23970703 4.3828125 3.29296875 C3.20332031 3.14794922 3.20332031 3.14794922 2 3 C1.34 2.01 0.68 1.02 0 0 Z " fill="#3F3E7C" transform="translate(148,152)"/>
<path d="M0 0 C3.465 1.98 3.465 1.98 7 4 C6.67 4.99 6.34 5.98 6 7 C3.5 5.625 3.5 5.625 1 4 C1 3.34 1 2.68 1 2 C0.34 1.67 -0.32 1.34 -1 1 C-0.67 0.67 -0.34 0.34 0 0 Z " fill="#212174" transform="translate(200,128)"/>
<path d="M0 0 C0.66 0 1.32 0 2 0 C2.33 1.65 2.66 3.3 3 5 C1.02 5.99 1.02 5.99 -1 7 C-0.67 4.69 -0.34 2.38 0 0 Z " fill="#19185D" transform="translate(434,550)"/>
<path d="M0 0 C0.66 0.33 1.32 0.66 2 1 C2.625 4.0625 2.625 4.0625 3 7 C1.35 7 -0.3 7 -2 7 C-1.34 4.69 -0.68 2.38 0 0 Z " fill="#C8CCE4" transform="translate(460,509)"/>
<path d="M0 0 C1.9375 0.8125 1.9375 0.8125 4 2 C4.33 2.99 4.66 3.98 5 5 C4.67 5.66 4.34 6.32 4 7 C3.34 6.67 2.68 6.34 2 6 C2 5.34 2 4.68 2 4 C1.34 3.67 0.68 3.34 0 3 C0 2.01 0 1.02 0 0 Z " fill="#16145F" transform="translate(344,437)"/>
<path d="M0 0 C-0.66 1.65 -1.32 3.3 -2 5 C-2.33 4.34 -2.66 3.68 -3 3 C-4.98 3.33 -6.96 3.66 -9 4 C-3 0 -3 0 0 0 Z " fill="#48467A" transform="translate(473,166)"/>
<path d="M0 0 C4.83256305 0.41421969 6.82679218 2.46413986 10 6 C6.00452264 5.38531118 3.22493358 3.34540624 0 1 C0 0.67 0 0.34 0 0 Z " fill="#B6B9DD" transform="translate(172,149)"/>
<path d="M0 0 C1.14926266 0.95421808 2.29430541 1.91352045 3.4375 2.875 C4.07558594 3.40867188 4.71367187 3.94234375 5.37109375 4.4921875 C7 6 7 6 8 8 C4.06326356 6.68775452 1.77280706 5.08089673 -1 2 C-0.67 1.34 -0.34 0.68 0 0 Z " fill="#7D80BA" transform="translate(185,133)"/>
<path d="M0 0 C0.86625 0.3403125 0.86625 0.3403125 1.75 0.6875 C0 2.25 0 2.25 -2.25 3.6875 C-4.5 3.375 -4.5 3.375 -6.25 2.6875 C-2.80384615 -0.38942308 -2.80384615 -0.38942308 0 0 Z " fill="#31306E" transform="translate(278.25,304.3125)"/>
<path d="M0 0 C0.99 0.33 1.98 0.66 3 1 C3 1.99 3 2.98 3 4 C1.02 4.33 -0.96 4.66 -3 5 C-2.01 3.35 -1.02 1.7 0 0 Z " fill="#010056" transform="translate(260,259)"/>
<path d="M0 0 C0.66 0 1.32 0 2 0 C1.1875 1.9375 1.1875 1.9375 0 4 C-3.47823115 5.15941038 -5.45895578 4.70820884 -9 4 C-9 3.67 -9 3.34 -9 3 C-7.88625 2.87625 -6.7725 2.7525 -5.625 2.625 C-1.96896323 2.3534187 -1.96896323 2.3534187 0 0 Z " fill="#ADB0D5" transform="translate(349,226)"/>
<path d="M0 0 C3.96 1.98 3.96 1.98 8 4 C8 4.33 8 4.66 8 5 C5.36 5 2.72 5 0 5 C0 3.35 0 1.7 0 0 Z " fill="#222265" transform="translate(304,168)"/>
<path d="M0 0 C3.26954202 0.56371414 4.82575883 1.49962266 7 4 C4.36 3.67 1.72 3.34 -1 3 C-0.67 2.01 -0.34 1.02 0 0 Z " fill="#2C2A68" transform="translate(418,158)"/>
<path d="M0 0 C1.70884005 1.62339805 3.37446717 3.29319053 5 5 C5 5.66 5 6.32 5 7 C2.11562221 5.70700306 0.12780579 4.34058637 -2 2 C-1.34 2 -0.68 2 0 2 C0 1.34 0 0.68 0 0 Z " fill="#BFC3E0" transform="translate(180,128)"/>
<path d="M0 0 C2 3 2 3 1.75 5.0625 C1 7 1 7 -1 9 C-1.09765625 2.84765625 -1.09765625 2.84765625 -1 1 C-0.67 0.67 -0.34 0.34 0 0 Z " fill="#605E8A" transform="translate(225,104)"/>
<path d="M0 0 C0.33 0.66 0.66 1.32 1 2 C-0.91522803 6.03205902 -1.85351878 6.92675939 -6 9 C-4.02 6.03 -2.04 3.06 0 0 Z " fill="#BCBED6" transform="translate(282,562)"/>
<path d="M0 0 C0.33 0.99 0.66 1.98 1 3 C1.66 3 2.32 3 3 3 C2.67 4.65 2.34 6.3 2 8 C2.66 8.33 3.32 8.66 4 9 C3.01 9 2.02 9 1 9 C0.67 6.03 0.34 3.06 0 0 Z " fill="#2A286B" transform="translate(249,460)"/>
<path d="M0 0 C0.33 0.99 0.66 1.98 1 3 C1.99 3 2.98 3 4 3 C4 3.99 4 4.98 4 6 C3.34 6 2.68 6 2 6 C1.34 6.66 0.68 7.32 0 8 C0 5.36 0 2.72 0 0 Z " fill="#010051" transform="translate(331,446)"/>
<path d="M0 0 C3 1 3 1 4 3 C3.67 3.66 3.34 4.32 3 5 C-0.875 3.25 -0.875 3.25 -2 1 C-1.34 0.67 -0.68 0.34 0 0 Z " fill="#24236A" transform="translate(186,410)"/>
<path d="M0 0 C-0.8125 1.9375 -0.8125 1.9375 -2 4 C-2.99 4.33 -3.98 4.66 -5 5 C-5.66 4.34 -6.32 3.68 -7 3 C-2.25 0 -2.25 0 0 0 Z " fill="#8B8DBC" transform="translate(314,282)"/>
<path d="M0 0 C0.66 1.32 1.32 2.64 2 4 C1.38125 3.814375 0.7625 3.62875 0.125 3.4375 C-2.04160178 2.76313824 -2.04160178 2.76313824 -4 4 C-4.66 3.34 -5.32 2.68 -6 2 C-3 0 -3 0 0 0 Z " fill="#444489" transform="translate(303,281)"/>
<path d="M0 0 C0.33 0.99 0.66 1.98 1 3 C-1.31 3.66 -3.62 4.32 -6 5 C-5.67 4.01 -5.34 3.02 -5 2 C-2.4375 0.8125 -2.4375 0.8125 0 0 Z " fill="#080657" transform="translate(284,277)"/>
<path d="M0 0 C-0.66 1.65 -1.32 3.3 -2 5 C-4.475 4.01 -4.475 4.01 -7 3 C-4.74624683 0.74624683 -3.20799182 0 0 0 Z " fill="#1B196C" transform="translate(298,274)"/>
<path d="M0 0 C1.32 0 2.64 0 4 0 C3.34 1.65 2.68 3.3 2 5 C1.01 5 0.02 5 -1 5 C-0.67 3.35 -0.34 1.7 0 0 Z " fill="#171865" transform="translate(252,230)"/>
<path d="M0 0 C1.98 0 3.96 0 6 0 C7.04449911 3.13349732 6.93423645 3.98968256 6 7 C5.34 6.67 4.68 6.34 4 6 C4 4.35 4 2.7 4 1 C2.68 0.67 1.36 0.34 0 0 Z " fill="#5B5A92" transform="translate(341,215)"/>
<path d="M0 0 C2.3125 1.25 2.3125 1.25 3.3125 3.25 C-1.6875 2.25 -1.6875 2.25 -6.6875 1.25 C-4.03583924 -0.51777384 -3.14407099 -0.87741516 0 0 Z " fill="#7E7EB7" transform="translate(218.6875,211.75)"/>
<path d="M0 0 C-0.39803561 2.88575819 -0.79009069 3.82189513 -3.0625 5.75 C-3.701875 6.1625 -4.34125 6.575 -5 7 C-4.625 4.0625 -4.625 4.0625 -4 1 C-2 0 -2 0 0 0 Z " fill="#12125D" transform="translate(463,172)"/>
<path d="M0 0 C1.32 0 2.64 0 4 0 C4 0.66 4 1.32 4 2 C4.66 2 5.32 2 6 2 C6 2.66 6 3.32 6 4 C5.34 4 4.68 4 4 4 C3.67 4.66 3.34 5.32 3 6 C2.67 4.68 2.34 3.36 2 2 C1.34 2 0.68 2 0 2 C0 1.34 0 0.68 0 0 Z " fill="#21216B" transform="translate(166,136)"/>
</svg>
